<?xml version="1.0" encoding="utf-8"?>
<svg width="800" height="800" viewBox="0 0 800 800" fill="none" xmlns="http://www.w3.org/2000/svg">
  <g>
    <path d="M261.312 43.9865C266.15 48.5411 268.88 54.9027 268.842 61.5485C268.806 68.1939 266.01 74.5254 261.12 79.0266C261.12 79.0266 223.04 124.595 223.04 124.595C223.04 124.595 93.472 279.123 93.472 279.123C91.2032 281.718 88.1856 283.542 84.832 284.339C84.832 284.339 17.632 299.571 17.632 299.571C8.81598 300.013 1.13919 293.603 0 284.851C0 284.851 0 215.795 0 215.795C0.227173 212.464 1.56799 209.309 3.80798 206.835C3.80798 206.835 130.976 63.0585 130.976 63.0585C130.976 63.0585 174.624 10.9305 174.624 10.9305C183.258 -0.388489 199.053 -3.34561 211.2 4.08255C211.2 4.08255 261.312 43.9865 261.312 43.9865Z" fill="none" stroke-width="48" stroke="#004AAD" stroke-linecap="round" stroke-linejoin="round" transform="translate(355.2 176)" />
    <path d="M233.056 48C246.31 48 257.056 37.255 257.056 24C257.056 10.7453 246.31 0 233.056 0C233.056 0 233.056 48 233.056 48ZM143.456 24C143.456 24 143.456 0 143.456 0L143.399 0C143.399 0 143.456 24 143.456 24ZM24.0003 144.002C24.0003 144.002 48.0003 144.002 48.0003 144.002L48.0003 143.947C48.0003 143.947 24.0003 144.002 24.0003 144.002ZM24.0003 324.002C24.0003 324.002 48.0003 324.053 48.0003 324.053L48.0003 324.002C48.0003 324.002 24.0003 324.002 24.0003 324.002ZM143.456 444.002C143.456 444.002 143.399 468.002 143.399 468.002L143.456 468.002C143.456 468.002 143.456 444.002 143.456 444.002ZM322.656 444.002C322.656 444.002 322.656 468.002 322.656 468.002L322.714 468.002C322.714 468.002 322.656 444.002 322.656 444.002ZM442.112 324.002C442.112 324.002 418.112 324.002 418.112 324.002L418.112 324.053C418.112 324.053 442.112 324.002 442.112 324.002ZM466.112 204.002C466.112 190.744 455.366 180.002 442.112 180.002C428.858 180.002 418.112 190.744 418.112 204.002C418.112 204.002 466.112 204.002 466.112 204.002ZM356.362 18.1059C351.302 5.85408 337.27 0.0220795 325.018 5.08C312.765 10.1379 306.934 24.1702 311.994 36.4221C311.994 36.4221 356.362 18.1059 356.362 18.1059ZM431.421 112.106C444.362 109.245 452.534 96.4342 449.674 83.4918C446.813 70.5495 434.003 62.3766 421.059 65.2377C421.059 65.2377 431.421 112.106 431.421 112.106ZM113.6 330.018C100.346 330.018 89.6003 340.76 89.6003 354.018C89.6003 367.272 100.346 378.018 113.6 378.018C113.6 378.018 113.6 330.018 113.6 330.018ZM352.544 378.018C365.798 378.018 376.544 367.272 376.544 354.018C376.544 340.76 365.798 330.018 352.544 330.018C352.544 330.018 352.544 378.018 352.544 378.018ZM233.056 0C233.056 0 143.456 0 143.456 0L143.456 48L233.056 48C233.056 48 233.056 0 233.056 0ZM143.399 0C64.0259 0.19072 -0.169586 64.6787 0.000335693 144.053C0.000335693 144.053 48.0003 143.947 48.0003 143.947C47.8871 91.0806 90.6461 48.127 143.514 48C143.514 48 143.399 0 143.399 0ZM0.000335693 144.002C0.000335693 144.002 0.000335693 324.002 0.000335693 324.002L48.0003 324.002L48.0003 144.002C48.0003 144.002 0.000335693 144.002 0.000335693 144.002ZM0.000335693 323.947C-0.169586 403.32 64.0259 467.81 143.399 468.002C143.399 468.002 143.514 420.002 143.514 420.002C90.6461 419.874 47.8871 376.92 48.0003 324.053C48.0003 324.053 0.000335693 323.947 0.000335693 323.947ZM143.456 468.002C143.456 468.002 322.656 468.002 322.656 468.002L322.656 420.002L143.456 420.002C143.456 420.002 143.456 468.002 143.456 468.002ZM322.714 468.002C402.086 467.81 466.282 403.32 466.112 323.947C466.112 323.947 418.112 324.053 418.112 324.053C418.224 376.92 375.466 419.874 322.598 420.002C322.598 420.002 322.714 468.002 322.714 468.002ZM466.112 324.002C466.112 324.002 466.112 204.002 466.112 204.002L418.112 204.002L418.112 324.002C418.112 324.002 466.112 324.002 466.112 324.002ZM311.994 36.4221C318.23 51.5303 330.954 72.944 349.971 89.4899C369.421 106.415 397.373 119.633 431.421 112.106C431.421 112.106 421.059 65.2377 421.059 65.2377C406.179 68.5271 393.251 63.5213 381.478 53.2784C369.27 42.656 360.429 27.9578 356.362 18.1059C356.362 18.1059 311.994 36.4221 311.994 36.4221ZM113.6 378.018C113.6 378.018 352.544 378.018 352.544 378.018L352.544 330.018L113.6 330.018C113.6 330.018 113.6 378.018 113.6 378.018Z" fill="#004AAD" transform="translate(152 211.797)" />
  </g>
</svg>