<?xml version="1.0" encoding="utf-8"?>
<svg width="15" height="15" viewBox="0 0 15 15" fill="none" xmlns="http://www.w3.org/2000/svg">
  <g>
    <path d="M3.31469 8.91006C3.22588 9.00719 3.10038 9.0625 2.96875 9.0625C2.83713 9.0625 2.71163 9.00719 2.62282 8.91006C2.62282 8.91006 0.122803 6.17569 0.122803 6.17569C-0.0518842 5.98463 -0.038609 5.68812 0.152453 5.51344C0.343522 5.33875 0.640016 5.352 0.814703 5.54306C0.814703 5.54306 2.5 7.38638 2.5 7.38638C2.5 7.38638 2.5 0.46875 2.5 0.46875C2.5 0.209869 2.70988 0 2.96875 0C3.22763 0 3.4375 0.209869 3.4375 0.46875C3.4375 0.46875 3.4375 7.38638 3.4375 7.38638C3.4375 7.38638 5.12282 5.54306 5.12282 5.54306C5.2975 5.352 5.594 5.33875 5.78507 5.51344C5.97613 5.68812 5.98938 5.98463 5.81469 6.17569C5.81469 6.17569 3.31469 8.91006 3.31469 8.91006Z" fill="#FFFFFF" transform="translate(4.531 1.406)" />
    <path d="M0.9375 0.46875C0.9375 0.209875 0.727638 0 0.46875 0C0.209869 0 3.57628e-07 0.209875 3.57628e-07 0.46875C3.57628e-07 0.46875 3.57628e-07 0.503062 3.57628e-07 0.503062C-1.22786e-05 1.35781 -2.47955e-05 2.04675 0.0728253 2.58862C0.148463 3.15119 0.310269 3.62481 0.686469 4.001C1.06267 4.37725 1.53634 4.53906 2.09891 4.61469C2.64076 4.6875 3.32971 4.6875 4.18446 4.6875C4.18446 4.6875 8.00306 4.6875 8.00306 4.6875C8.85781 4.6875 9.54675 4.6875 10.0886 4.61469C10.6512 4.53906 11.1248 4.37725 11.5011 4.001C11.8773 3.62481 12.0391 3.15119 12.1147 2.58862C12.1875 2.04675 12.1875 1.35781 12.1875 0.503062C12.1875 0.503062 12.1875 0.46875 12.1875 0.46875C12.1875 0.209875 11.9776 0 11.7188 0C11.4599 0 11.25 0.209875 11.25 0.46875C11.25 1.36588 11.249 1.99156 11.1856 2.46369C11.1239 2.92231 11.0111 3.16512 10.8381 3.33812C10.6651 3.51112 10.4223 3.62388 9.96369 3.68556C9.49156 3.749 8.86588 3.75 7.96875 3.75C7.96875 3.75 4.21875 3.75 4.21875 3.75C3.32162 3.75 2.69592 3.749 2.22383 3.68556C1.76522 3.62388 1.52236 3.51112 1.34938 3.33812C1.17641 3.16512 1.06363 2.92231 1.00197 2.46369C0.938494 1.99156 0.9375 1.36588 0.9375 0.46875Z" fill="#FFFFFF" transform="translate(1.406 8.906)" />
  </g>
</svg>