<?xml version="1.0" encoding="utf-8"?>
<svg width="15" height="15" viewBox="0 0 15 15" fill="none" xmlns="http://www.w3.org/2000/svg">
  <g transform="matrix(-1 0 0 1 15 0)">
    <path d="M13.1361 4.66916L13.1361 0.694157C13.1361 0.694157 11.5424 2.28791 11.5424 2.28791C9.52879 -0.0573396 6.15163 -0.679525 3.43449 0.794173C0.717357 2.26787 -0.60303 5.43788 0.26452 8.40469C1.13207 11.3715 3.95234 13.3307 7.03538 13.1083C10.1184 12.8859 12.6283 10.5423 13.0611 7.48166C13.0611 7.48166 11.7392 7.48166 11.7392 7.48166C11.3117 9.9245 9.24108 11.7402 6.76332 11.8451C4.28555 11.9499 2.06896 10.3157 1.43652 7.91769C0.804087 5.5197 1.9264 3.00484 4.13361 1.8741C6.34081 0.743373 9.03754 1.30178 10.6142 3.21603C10.6142 3.21603 9.1611 4.66916 9.1611 4.66916L13.1361 4.66916Z" fill="#004AAD" transform="matrix(1 0 0 1 0.927 0.956)" />
  </g>
</svg>