<?xml version="1.0" encoding="utf-8"?>
<svg width="25" height="25" viewBox="0 0 25 25" fill="none" xmlns="http://www.w3.org/2000/svg">
  <defs>
    <clipPath id="clip_path_1">
      <rect width="25" height="25" />
    </clipPath>
  </defs>
  <g>
    <g clip-path="url(#clip_path_1)">
      <g transform="translate(-0.006 1.042)">
        <path d="M1.04167 0C1.61698 0 2.08333 0.466375 2.08333 1.04167C2.08333 1.04167 2.08333 7.29167 2.08333 7.29167C2.08333 7.86698 1.61698 8.33333 1.04167 8.33333C0.466353 8.33333 0 7.86698 0 7.29167C0 7.29167 0 1.04167 0 1.04167C0 0.466375 0.466353 0 1.04167 0Z" fill="#3879FC" transform="translate(11.464 5.729)" />
        <path d="M1.5625 3.125C2.42542 3.125 3.125 2.42542 3.125 1.5625C3.125 0.699584 2.42542 0 1.5625 0C0.699584 0 0 0.699584 0 1.5625C0 2.42542 0.699584 3.125 1.5625 3.125Z" fill="#3879FC" transform="translate(10.944 15.104)" />
        <path d="M10.2422 1.28023C11.2496 -0.426743 13.7627 -0.426744 14.7702 1.28023C14.7702 1.28023 24.6518 18.0233 24.6518 18.0233C25.6913 19.7847 24.3434 21.875 22.3879 21.875C22.3879 21.875 2.62446 21.875 2.62446 21.875C0.668958 21.875 -0.678997 19.7847 0.360494 18.0233C0.360494 18.0233 10.2422 1.28023 10.2422 1.28023ZM12.976 2.33914C12.7746 1.99806 12.2377 1.99806 12.0363 2.33914C12.0363 2.33914 2.15466 19.0823 2.15466 19.0823C1.99469 19.3533 2.16237 19.7917 2.62446 19.7917C2.62446 19.7917 22.3879 19.7917 22.3879 19.7917C22.85 19.7917 23.0177 19.3533 22.8577 19.0823C22.8577 19.0823 12.976 2.33914 12.976 2.33914Z" fill="#3879FC" fill-rule="evenodd" />
      </g>
    </g>
  </g>
</svg>