<?xml version="1.0" encoding="utf-8"?>
<svg width="50" height="50" viewBox="0 0 50 50" fill="none" xmlns="http://www.w3.org/2000/svg">
  <g>
    <path d="M37.547 12.4421C37.5443 16.2393 34.9744 19.5549 31.2974 20.5045C31.2974 20.5045 23.5682 20.5045 23.5682 20.5045L23.5682 8.00453L14.4636 20.7755C14.4636 20.7755 6.29697 20.7755 6.29697 20.7755C3.7759 20.7943 1.49034 19.2967 0.501242 16.9777C-0.487858 14.6587 0.0131965 11.9724 1.77182 10.166C3.53044 8.35947 6.20224 7.78648 8.54697 8.71297C9.23636 4.55592 12.3624 1.22368 16.467 0.270495C20.5716 -0.682687 24.8462 0.930966 27.297 4.35881C27.9243 4.20287 28.5673 4.11899 29.2136 4.10881C33.816 4.10881 37.547 7.83977 37.547 12.4421ZM21.4845 20.6088L21.4845 14.5255L17.047 20.6505L12.547 26.8588L17.9011 28.6296L17.9011 37.4421L25.047 25.1088L21.4845 23.338L21.4845 20.6088Z" fill="#FFFFFF" transform="translate(6.203 6.308)" />
  </g>
</svg>