<?xml version="1.0" encoding="utf-8"?>
<svg width="588" height="346" viewBox="0 0 588 346" fill="none" xmlns="http://www.w3.org/2000/svg">
  <g>
    <rect width="585" height="346" fill="#1A1A1A" fill-rule="evenodd" transform="translate(3 0)" />
    <rect width="3" height="346" fill="#004AAD" fill-rule="evenodd" />
    <g transform="translate(48 31)">
      <g fill="#FFFFFF" transform="translate(0 129)">
        <path d="M3.44531 13.9435C4.40918 13.9435 5.37646 13.441 6.13184 12.8531L6.17285 12.8531L6.27197 13.776L7.2085 13.776L7.2085 9.60266C7.2085 7.91077 6.31299 6.80334 4.45361 6.80334C3.26074 6.80334 2.1123 7.33655 1.42871 7.7843L1.87646 8.56702C2.50537 8.17737 3.37354 7.75696 4.25537 7.75696C5.57129 7.75696 6.03271 8.53967 6.06348 9.46252C2.54639 9.7428 1.13477 10.4845 1.13477 12.0123C1.13477 13.2291 2.17041 13.9435 3.44531 13.9435ZM3.75293 13.0206C2.9668 13.0206 2.25244 12.6993 2.25244 11.9269C2.25244 11.0314 3.15137 10.4572 6.06348 10.2213L6.06348 12.0123C5.29102 12.6549 4.52197 13.0206 3.75293 13.0206ZM13.9166 13.9435C14.7711 13.9435 15.4273 13.7623 16.0426 13.5367L15.7931 12.6993C15.3009 12.8805 14.7984 13.007 14.1524 13.007C12.8365 13.007 12.4332 12.361 12.4332 11.1442L12.4332 7.91077L15.7794 7.91077L15.7794 6.97082L12.4332 6.97082L12.4332 4.78674L11.4796 4.78674L11.3258 6.97082L9.36729 7.0426L9.36729 7.91077L11.2848 7.91077L11.2848 11.1305C11.2848 12.8087 11.9273 13.9435 13.9166 13.9435ZM17.6135 13.776L18.7585 13.776L18.7585 8.84729C19.0969 8.14661 19.4045 7.79797 19.8796 7.79797C20.3855 7.79797 20.5803 8.20471 20.5803 8.98743L20.5803 13.776L21.6433 13.776L21.6433 8.84729C22.009 8.14661 22.2585 7.79797 22.737 7.79797C23.2395 7.79797 23.465 8.20471 23.465 8.98743L23.465 13.776L24.6135 13.776L24.6135 8.90539C24.6135 7.54504 24.0529 6.80334 23.0993 6.80334C22.3166 6.80334 21.8962 7.2511 21.5031 7.97913C21.3083 7.19641 20.8879 6.80334 20.2146 6.80334C19.4318 6.80334 19.0114 7.23743 18.6628 7.86633L18.6355 7.86633L18.5363 6.97082L17.6135 6.97082L17.6135 13.776ZM29.4007 13.9435C31.1917 13.9435 32.7605 12.6412 32.7605 10.3888C32.7605 8.10559 31.1917 6.80334 29.4007 6.80334C27.6097 6.80334 26.0408 8.10559 26.0408 10.3888C26.0408 12.6412 27.6097 13.9435 29.4007 13.9435ZM29.4007 12.9933C28.0984 12.9933 27.2303 11.9406 27.2303 10.3888C27.2303 8.81995 28.0984 7.75696 29.4007 7.75696C30.7029 7.75696 31.5711 8.81995 31.5711 10.3888C31.5711 11.9406 30.7029 12.9933 29.4007 12.9933ZM37.9408 13.9435C39.8856 13.9435 40.9623 13.0206 40.9623 11.9132C40.9623 10.8776 40.4188 10.3033 38.1493 9.81457C36.765 9.52063 36.1772 9.2677 36.1772 8.67981C36.1772 8.1637 36.5805 7.69885 37.7426 7.69885C38.6107 7.69885 39.3969 7.97913 40.0258 8.41321L40.5863 7.67151C39.913 7.21008 38.8773 6.80334 37.8417 6.80334C35.9789 6.80334 35.015 7.64416 35.015 8.7345C35.015 9.75647 35.9105 10.3614 37.6742 10.7238C39.5233 11.1031 39.8036 11.4655 39.8036 11.985C39.8036 12.5592 39.2294 13.048 38.081 13.048C36.8197 13.048 35.9105 12.6857 35.1244 12.1251L34.5946 12.8805C35.4184 13.4547 36.6112 13.9435 37.9408 13.9435ZM43.1895 9.58899L49.2085 9.58899L49.2085 8.72082L43.1895 8.72082L43.1895 9.58899ZM53.8453 13.9435C54.8092 13.9435 55.7765 13.441 56.5318 12.8531L56.5729 12.8531L56.672 13.776L57.6085 13.776L57.6085 9.60266C57.6085 7.91077 56.713 6.80334 54.8536 6.80334C53.6607 6.80334 52.5123 7.33655 51.8287 7.7843L52.2765 8.56702C52.9054 8.17737 53.7735 7.75696 54.6554 7.75696C55.9713 7.75696 56.4327 8.53967 56.4635 9.46252C52.9464 9.7428 51.5348 10.4845 51.5348 12.0123C51.5348 13.2291 52.5704 13.9435 53.8453 13.9435ZM54.1529 13.0206C53.3668 13.0206 52.6524 12.6993 52.6524 11.9269C52.6524 11.0314 53.5514 10.4572 56.4635 10.2213L56.4635 12.0123C55.691 12.6549 54.922 13.0206 54.1529 13.0206ZM62.9426 16.9137C65.2531 16.9137 66.7229 15.8063 66.7229 14.5314C66.7229 13.3829 65.8855 12.9352 64.1355 12.9352L62.6076 12.9352C61.7121 12.9352 61.1926 12.6857 61.1926 12.1525C61.1926 11.8312 61.3908 11.5782 61.7258 11.3663C62.1052 11.5372 62.5256 11.6193 62.8742 11.6193C64.3439 11.6193 65.5061 10.7374 65.5061 9.28137C65.5061 8.7345 65.2395 8.23205 64.9318 7.91077L66.6955 7.91077L66.6955 6.97082L63.8825 6.97082C63.5886 6.86145 63.2673 6.80334 62.8742 6.80334C61.4318 6.80334 60.2014 7.75696 60.2014 9.24036C60.2014 10.0504 60.5774 10.6554 61.0388 11.004L61.0388 11.0587C60.5227 11.4108 60.2287 11.8995 60.2287 12.3336C60.2287 12.9078 60.5637 13.2565 60.9294 13.4547L60.9294 13.5094C60.2014 13.9298 59.8083 14.4767 59.8083 15.0236C59.8083 16.2267 60.9567 16.9137 62.9426 16.9137ZM62.8742 10.8502C62.0197 10.8502 61.3054 10.2213 61.3054 9.24036C61.3054 8.28674 62.0197 7.64416 62.8742 7.64416C63.7424 7.64416 64.4431 8.28674 64.4431 9.24036C64.4431 10.2213 63.7424 10.8502 62.8742 10.8502ZM63.028 16.0729C61.572 16.0729 60.8029 15.6251 60.8029 14.9108C60.8029 14.5177 61.0251 14.1246 61.6711 13.776C61.965 13.8614 62.3137 13.8888 62.7067 13.8888L64.0363 13.8888C65.072 13.8888 65.5915 14.0699 65.5915 14.7125C65.5915 15.4132 64.6105 16.0729 63.028 16.0729ZM71.6536 7.71252C72.8123 7.71252 73.5848 8.39954 73.6805 9.8009L69.3431 9.8009C69.5516 8.45764 70.5325 7.71252 71.6536 7.71252ZM71.8211 13.9435C72.9114 13.9435 73.7796 13.5812 74.4529 13.1334L74.0325 12.3746C73.4173 12.7677 72.7713 13.0206 71.9612 13.0206C70.5462 13.0206 69.4524 12.2345 69.3123 10.6964L74.6751 10.6964C74.7024 10.5153 74.7332 10.2623 74.7332 9.99573C74.7332 8.07825 73.5848 6.80334 71.6229 6.80334C69.8045 6.80334 68.1536 8.14661 68.1536 10.3614C68.1536 12.6276 69.7772 13.9435 71.8211 13.9435ZM76.9023 13.776L78.0507 13.776L78.0507 9.02844C78.8471 8.20471 79.394 7.79797 80.2074 7.79797C81.3251 7.79797 81.7729 8.41321 81.7729 9.70178L81.7729 13.776L82.9213 13.776L82.9213 9.54797C82.9213 7.75696 82.1796 6.80334 80.5697 6.80334C79.5067 6.80334 78.7206 7.37756 78.0097 8.13293L77.9516 8.13293L77.8524 6.97082L76.9023 6.97082L76.9023 13.776ZM89.5166 13.9435C90.3711 13.9435 91.0274 13.7623 91.6426 13.5367L91.3931 12.6993C90.9009 12.8805 90.3984 13.007 89.7524 13.007C88.4365 13.007 88.0332 12.361 88.0332 11.1442L88.0332 7.91077L91.3794 7.91077L91.3794 6.97082L88.0332 6.97082L88.0332 4.78674L87.0796 4.78674L86.9258 6.97082L84.9673 7.0426L84.9673 7.91077L86.8848 7.91077L86.8848 11.1305C86.8848 12.8087 87.5274 13.9435 89.5166 13.9435ZM105.141 13.9435C107.086 13.9435 108.162 13.0206 108.162 11.9132C108.162 10.8776 107.619 10.3033 105.349 9.81457C103.965 9.52063 103.377 9.2677 103.377 8.67981C103.377 8.1637 103.78 7.69885 104.943 7.69885C105.811 7.69885 106.597 7.97913 107.226 8.41321L107.786 7.67151C107.113 7.21008 106.077 6.80334 105.042 6.80334C103.179 6.80334 102.215 7.64416 102.215 8.7345C102.215 9.75647 103.111 10.3614 104.874 10.7238C106.723 11.1031 107.004 11.4655 107.004 11.985C107.004 12.5592 106.429 13.048 105.281 13.048C104.02 13.048 103.111 12.6857 102.324 12.1251L101.795 12.8805C102.618 13.4547 103.811 13.9435 105.141 13.9435ZM114.717 13.9435C115.571 13.9435 116.227 13.7623 116.843 13.5367L116.593 12.6993C116.101 12.8805 115.598 13.007 114.952 13.007C113.637 13.007 113.233 12.361 113.233 11.1442L113.233 7.91077L116.579 7.91077L116.579 6.97082L113.233 6.97082L113.233 4.78674L112.28 4.78674L112.126 6.97082L110.167 7.0426L110.167 7.91077L112.085 7.91077L112.085 11.1305C112.085 12.8087 112.727 13.9435 114.717 13.9435ZM121.045 13.9435C122.009 13.9435 122.976 13.441 123.732 12.8531L123.773 12.8531L123.872 13.776L124.809 13.776L124.809 9.60266C124.809 7.91077 123.913 6.80334 122.054 6.80334C120.861 6.80334 119.712 7.33655 119.029 7.7843L119.476 8.56702C120.105 8.17737 120.974 7.75696 121.855 7.75696C123.171 7.75696 123.633 8.53967 123.663 9.46252C120.146 9.7428 118.735 10.4845 118.735 12.0123C118.735 13.2291 119.77 13.9435 121.045 13.9435ZM121.353 13.0206C120.567 13.0206 119.852 12.6993 119.852 11.9269C119.852 11.0314 120.751 10.4572 123.663 10.2213L123.663 12.0123C122.891 12.6549 122.122 13.0206 121.353 13.0206ZM131.517 13.9435C132.371 13.9435 133.027 13.7623 133.643 13.5367L133.393 12.6993C132.901 12.8805 132.398 13.007 131.752 13.007C130.437 13.007 130.033 12.361 130.033 11.1442L130.033 7.91077L133.379 7.91077L133.379 6.97082L130.033 6.97082L130.033 4.78674L129.08 4.78674L128.926 6.97082L126.967 7.0426L126.967 7.91077L128.885 7.91077L128.885 11.1305C128.885 12.8087 129.527 13.9435 131.517 13.9435ZM137.845 13.9435C138.895 13.9435 139.691 13.3829 140.378 12.5865L140.433 12.5865L140.532 13.776L141.468 13.776L141.468 6.97082L140.323 6.97082L140.323 11.691C139.565 12.5729 138.99 12.9489 138.208 12.9489C137.073 12.9489 136.639 12.3336 136.639 11.045L136.639 6.97082L135.477 6.97082L135.477 11.1989C135.477 12.9933 136.218 13.9435 137.845 13.9435ZM147.141 13.9435C149.086 13.9435 150.162 13.0206 150.162 11.9132C150.162 10.8776 149.619 10.3033 147.349 9.81457C145.965 9.52063 145.377 9.2677 145.377 8.67981C145.377 8.1637 145.78 7.69885 146.943 7.69885C147.811 7.69885 148.597 7.97913 149.226 8.41321L149.786 7.67151C149.113 7.21008 148.077 6.80334 147.042 6.80334C145.179 6.80334 144.215 7.64416 144.215 8.7345C144.215 9.75647 145.111 10.3614 146.874 10.7238C148.723 11.1031 149.004 11.4655 149.004 11.985C149.004 12.5592 148.429 13.048 147.281 13.048C146.02 13.048 145.111 12.6857 144.324 12.1251L143.795 12.8805C144.618 13.4547 145.811 13.9435 147.141 13.9435Z" transform="translate(0 4.201)" />
        <path d="M6.17285 15.9054L7.02734 15.9054L7.02734 15.2457L6.29932 15.2457C4.87061 15.2457 4.56299 14.8834 4.56299 13.9708C4.56299 13.1163 4.64844 12.3883 4.64844 11.4381C4.64844 10.5289 4.34082 10.0812 3.37354 9.9137L3.37354 9.85559C4.34082 9.68811 4.64844 9.24036 4.64844 8.33118C4.64844 7.46301 4.56299 6.59485 4.56299 5.79504C4.56299 4.88586 4.87061 4.52356 6.29932 4.52356L7.02734 4.52356L7.02734 3.86389L6.17285 3.86389C4.40918 3.86389 3.58545 4.2843 3.58545 5.72668C3.58545 6.69055 3.7085 7.54504 3.7085 8.42688C3.7085 8.97375 3.33252 9.50696 1.68164 9.52063L1.68164 10.2487C3.33252 10.2623 3.7085 10.7955 3.7085 11.339C3.7085 12.2789 3.58545 13.0206 3.58545 14.0426C3.58545 15.485 4.40918 15.9054 6.17285 15.9054Z" transform="translate(0 30.201)" />
        <path d="M18.9978 8.84729L19.7805 8.84729L20.1325 5.69934L20.1599 4.15784L18.6184 4.15784L18.6491 5.69934L18.9978 8.84729ZM22.2175 8.84729L23.0036 8.84729L23.3522 5.69934L23.3796 4.15784L21.8415 4.15784L21.8688 5.69934L22.2175 8.84729ZM29.5408 13.9435C31.4856 13.9435 32.5623 13.0206 32.5623 11.9132C32.5623 10.8776 32.0188 10.3033 29.7493 9.81457C28.365 9.52063 27.7771 9.2677 27.7771 8.67981C27.7771 8.1637 28.1805 7.69885 29.3426 7.69885C30.2107 7.69885 30.9969 7.97913 31.6258 8.41321L32.1863 7.67151C31.513 7.21008 30.4773 6.80334 29.4417 6.80334C27.5789 6.80334 26.615 7.64416 26.615 8.7345C26.615 9.75647 27.5105 10.3614 29.2742 10.7238C31.1233 11.1031 31.4036 11.4655 31.4036 11.985C31.4036 12.5592 30.8294 13.048 29.681 13.048C28.4197 13.048 27.5105 12.6857 26.7244 12.1251L26.1946 12.8805C27.0184 13.4547 28.2112 13.9435 29.5408 13.9435ZM38.0536 7.71252C39.2123 7.71252 39.9848 8.39954 40.0805 9.8009L35.7431 9.8009C35.9516 8.45764 36.9325 7.71252 38.0536 7.71252ZM38.2211 13.9435C39.3114 13.9435 40.1796 13.5812 40.8529 13.1334L40.4325 12.3746C39.8173 12.7677 39.1713 13.0206 38.3612 13.0206C36.9462 13.0206 35.8524 12.2345 35.7123 10.6964L41.0751 10.6964C41.1024 10.5153 41.1332 10.2623 41.1332 9.99573C41.1332 8.07825 39.9848 6.80334 38.0229 6.80334C36.2045 6.80334 34.5536 8.14661 34.5536 10.3614C34.5536 12.6276 36.1772 13.9435 38.2211 13.9435ZM44.0439 13.776L45.1924 13.776L45.1924 9.78723C46.0024 8.37219 46.9697 7.83899 47.9917 7.83899C48.5249 7.83899 48.7744 7.91077 49.2529 8.07825L49.5195 7.08362C49.0991 6.87512 48.6787 6.80334 48.1729 6.80334C46.915 6.80334 45.8486 7.49036 45.1377 8.58069L45.0933 8.58069L44.9976 6.97082L44.0439 6.97082L44.0439 13.776ZM53.9855 13.776L55.2706 13.776L58.087 6.97082L56.9796 6.97082L55.4107 10.8365C55.1305 11.5236 54.9083 12.1935 54.669 12.8395L54.6144 12.8395C54.3751 12.1935 54.1256 11.5236 53.8453 10.8365L52.2765 6.97082L51.1144 6.97082L53.9855 13.776ZM63.2229 13.776L64.3713 13.776L64.3713 6.97082L60.0612 6.97082L60.0612 7.91077L63.2229 7.91077L63.2229 13.776ZM63.6706 5.54553C64.1901 5.54553 64.5969 5.19348 64.5969 4.64661C64.5969 4.11682 64.1901 3.7511 63.6706 3.7511C63.1545 3.7511 62.7478 4.11682 62.7478 4.64661C62.7478 5.19348 63.1545 5.54553 63.6706 5.54553ZM72.0433 13.9435C73.0516 13.9435 73.9915 13.5504 74.7469 12.8805L74.2273 12.1388C73.6668 12.6139 72.9695 12.9933 72.1287 12.9933C70.5599 12.9933 69.5106 11.9406 69.5106 10.3888C69.5106 8.81995 70.5872 7.75696 72.1561 7.75696C72.8704 7.75696 73.4583 8.0509 74.0189 8.53967L74.5931 7.79797C74.0325 7.2511 73.219 6.80334 72.115 6.80334C70.0574 6.80334 68.3211 8.10559 68.3211 10.3888C68.3211 12.6412 69.9173 13.9435 72.0433 13.9435ZM80.0536 7.71252C81.2123 7.71252 81.9848 8.39954 82.0805 9.8009L77.7431 9.8009C77.9516 8.45764 78.9325 7.71252 80.0536 7.71252ZM80.2211 13.9435C81.3114 13.9435 82.1796 13.5812 82.8529 13.1334L82.4325 12.3746C81.8173 12.7677 81.1713 13.0206 80.3612 13.0206C78.9462 13.0206 77.8524 12.2345 77.7123 10.6964L83.0751 10.6964C83.1024 10.5153 83.1332 10.2623 83.1332 9.99573C83.1332 8.07825 81.9848 6.80334 80.0229 6.80334C78.2045 6.80334 76.5536 8.14661 76.5536 10.3614C76.5536 12.6276 78.1772 13.9435 80.2211 13.9435ZM86.1978 8.84729L86.9805 8.84729L87.3325 5.69934L87.3599 4.15784L85.8184 4.15784L85.8491 5.69934L86.1978 8.84729ZM89.4175 8.84729L90.2036 8.84729L90.5523 5.69934L90.5796 4.15784L89.0415 4.15784L89.0689 5.69934L89.4175 8.84729ZM96.6007 8.93274C97.2296 8.93274 97.7355 8.45764 97.7355 7.75696C97.7355 7.0426 97.2296 6.5675 96.6007 6.5675C95.9684 6.5675 95.4659 7.0426 95.4659 7.75696C95.4659 8.45764 95.9684 8.93274 96.6007 8.93274ZM96.6007 13.9435C97.2296 13.9435 97.7355 13.4684 97.7355 12.7677C97.7355 12.0533 97.2296 11.5782 96.6007 11.5782C95.9684 11.5782 95.4659 12.0533 95.4659 12.7677C95.4659 13.4684 95.9684 13.9435 96.6007 13.9435ZM111.398 8.84729L112.18 8.84729L112.533 5.69934L112.56 4.15784L111.018 4.15784L111.049 5.69934L111.398 8.84729ZM114.617 8.84729L115.404 8.84729L115.752 5.69934L115.78 4.15784L114.242 4.15784L114.269 5.69934L114.617 8.84729ZM119.644 13.776L120.792 13.776L120.792 9.78723C121.602 8.37219 122.57 7.83899 123.592 7.83899C124.125 7.83899 124.374 7.91077 124.853 8.07825L125.12 7.08362C124.699 6.87512 124.279 6.80334 123.773 6.80334C122.515 6.80334 121.449 7.49036 120.738 8.58069L120.693 8.58069L120.598 6.97082L119.644 6.97082L119.644 13.776ZM129.445 13.9435C130.495 13.9435 131.291 13.3829 131.978 12.5865L132.033 12.5865L132.132 13.776L133.068 13.776L133.068 6.97082L131.923 6.97082L131.923 11.691C131.165 12.5729 130.59 12.9489 129.808 12.9489C128.673 12.9489 128.239 12.3336 128.239 11.045L128.239 6.97082L127.077 6.97082L127.077 11.1989C127.077 12.9933 127.818 13.9435 129.445 13.9435ZM135.702 13.776L136.851 13.776L136.851 9.02844C137.647 8.20471 138.194 7.79797 139.007 7.79797C140.125 7.79797 140.573 8.41321 140.573 9.70178L140.573 13.776L141.721 13.776L141.721 9.54797C141.721 7.75696 140.98 6.80334 139.37 6.80334C138.307 6.80334 137.521 7.37756 136.81 8.13293L136.752 8.13293L136.652 6.97082L135.702 6.97082L135.702 13.776ZM144.102 13.776L145.251 13.776L145.251 9.02844C146.047 8.20471 146.594 7.79797 147.407 7.79797C148.525 7.79797 148.973 8.41321 148.973 9.70178L148.973 13.776L150.121 13.776L150.121 9.54797C150.121 7.75696 149.38 6.80334 147.77 6.80334C146.707 6.80334 145.921 7.37756 145.21 8.13293L145.152 8.13293L145.052 6.97082L144.102 6.97082L144.102 13.776ZM155.623 13.776L156.771 13.776L156.771 6.97082L152.461 6.97082L152.461 7.91077L155.623 7.91077L155.623 13.776ZM156.071 5.54553C156.59 5.54553 156.997 5.19348 156.997 4.64661C156.997 4.11682 156.59 3.7511 156.071 3.7511C155.554 3.7511 155.148 4.11682 155.148 4.64661C155.148 5.19348 155.554 5.54553 156.071 5.54553ZM160.902 13.776L162.051 13.776L162.051 9.02844C162.847 8.20471 163.394 7.79797 164.207 7.79797C165.325 7.79797 165.773 8.41321 165.773 9.70178L165.773 13.776L166.921 13.776L166.921 9.54797C166.921 7.75696 166.18 6.80334 164.57 6.80334C163.507 6.80334 162.721 7.37756 162.01 8.13293L161.952 8.13293L161.852 6.97082L160.902 6.97082L160.902 13.776ZM172.143 16.9137C174.453 16.9137 175.923 15.8063 175.923 14.5314C175.923 13.3829 175.085 12.9352 173.335 12.9352L171.808 12.9352C170.912 12.9352 170.393 12.6857 170.393 12.1525C170.393 11.8312 170.591 11.5782 170.926 11.3663C171.305 11.5372 171.726 11.6193 172.074 11.6193C173.544 11.6193 174.706 10.7374 174.706 9.28137C174.706 8.7345 174.439 8.23205 174.132 7.91077L175.895 7.91077L175.895 6.97082L173.083 6.97082C172.789 6.86145 172.467 6.80334 172.074 6.80334C170.632 6.80334 169.401 7.75696 169.401 9.24036C169.401 10.0504 169.777 10.6554 170.239 11.004L170.239 11.0587C169.723 11.4108 169.429 11.8995 169.429 12.3336C169.429 12.9078 169.764 13.2565 170.129 13.4547L170.129 13.5094C169.401 13.9298 169.008 14.4767 169.008 15.0236C169.008 16.2267 170.157 16.9137 172.143 16.9137ZM172.074 10.8502C171.22 10.8502 170.505 10.2213 170.505 9.24036C170.505 8.28674 171.22 7.64416 172.074 7.64416C172.942 7.64416 173.643 8.28674 173.643 9.24036C173.643 10.2213 172.942 10.8502 172.074 10.8502ZM172.228 16.0729C170.772 16.0729 170.003 15.6251 170.003 14.9108C170.003 14.5177 170.225 14.1246 170.871 13.776C171.165 13.8614 171.514 13.8888 171.907 13.8888L173.236 13.8888C174.272 13.8888 174.791 14.0699 174.791 14.7125C174.791 15.4132 173.811 16.0729 172.228 16.0729ZM178.598 8.84729L179.38 8.84729L179.732 5.69934L179.76 4.15784L178.218 4.15784L178.249 5.69934L178.598 8.84729ZM181.817 8.84729L182.604 8.84729L182.952 5.69934L182.98 4.15784L181.441 4.15784L181.469 5.69934L181.817 8.84729ZM187.88 16.7565C189.421 16.1857 190.344 15.0372 190.344 13.3966C190.344 12.3063 189.91 11.6056 189.083 11.6056C188.481 11.6056 187.965 11.985 187.965 12.6686C187.965 13.3693 188.454 13.7213 189.055 13.7213C189.141 13.7213 189.236 13.7213 189.322 13.6906C189.281 14.798 188.707 15.5123 187.558 16.0284L187.88 16.7565Z" transform="translate(0 56.201)" />
        <path d="M18.9978 8.84729L19.7805 8.84729L20.1325 5.69934L20.1599 4.15784L18.6184 4.15784L18.6491 5.69934L18.9978 8.84729ZM22.2175 8.84729L23.0036 8.84729L23.3522 5.69934L23.3796 4.15784L21.8415 4.15784L21.8688 5.69934L22.2175 8.84729ZM30.0433 13.9435C31.0516 13.9435 31.9915 13.5504 32.7469 12.8805L32.2273 12.1388C31.6668 12.6139 30.9695 12.9933 30.1287 12.9933C28.5599 12.9933 27.5105 11.9406 27.5105 10.3888C27.5105 8.81995 28.5872 7.75696 30.1561 7.75696C30.8704 7.75696 31.4583 8.0509 32.0188 8.53967L32.5931 7.79797C32.0325 7.2511 31.219 6.80334 30.115 6.80334C28.0574 6.80334 26.3211 8.10559 26.3211 10.3888C26.3211 12.6412 27.9173 13.9435 30.0433 13.9435ZM37.8007 13.9435C39.5917 13.9435 41.1605 12.6412 41.1605 10.3888C41.1605 8.10559 39.5917 6.80334 37.8007 6.80334C36.0097 6.80334 34.4408 8.10559 34.4408 10.3888C34.4408 12.6412 36.0097 13.9435 37.8007 13.9435ZM37.8007 12.9933C36.4984 12.9933 35.6303 11.9406 35.6303 10.3888C35.6303 8.81995 36.4984 7.75696 37.8007 7.75696C39.1029 7.75696 39.9711 8.81995 39.9711 10.3888C39.9711 11.9406 39.1029 12.9933 37.8007 12.9933ZM43.3022 13.776L44.4507 13.776L44.4507 9.02844C45.2471 8.20471 45.7939 7.79797 46.6074 7.79797C47.7251 7.79797 48.1729 8.41321 48.1729 9.70178L48.1729 13.776L49.3213 13.776L49.3213 9.54797C49.3213 7.75696 48.5796 6.80334 46.9697 6.80334C45.9067 6.80334 45.1206 7.37756 44.4097 8.13293L44.3516 8.13293L44.2524 6.97082L43.3022 6.97082L43.3022 13.776ZM51.7023 13.776L52.8507 13.776L52.8507 9.02844C53.6471 8.20471 54.194 7.79797 55.0074 7.79797C56.1251 7.79797 56.5729 8.41321 56.5729 9.70178L56.5729 13.776L57.7213 13.776L57.7213 9.54797C57.7213 7.75696 56.9796 6.80334 55.3697 6.80334C54.3067 6.80334 53.5206 7.37756 52.8097 8.13293L52.7516 8.13293L52.6524 6.97082L51.7023 6.97082L51.7023 13.776ZM63.2536 7.71252C64.4123 7.71252 65.1848 8.39954 65.2805 9.8009L60.9431 9.8009C61.1516 8.45764 62.1325 7.71252 63.2536 7.71252ZM63.4211 13.9435C64.5114 13.9435 65.3796 13.5812 66.0529 13.1334L65.6325 12.3746C65.0173 12.7677 64.3713 13.0206 63.5612 13.0206C62.1462 13.0206 61.0524 12.2345 60.9123 10.6964L66.2751 10.6964C66.3024 10.5153 66.3332 10.2623 66.3332 9.99573C66.3332 8.07825 65.1848 6.80334 63.2229 6.80334C61.4045 6.80334 59.7536 8.14661 59.7536 10.3614C59.7536 12.6276 61.3772 13.9435 63.4211 13.9435ZM72.0433 13.9435C73.0516 13.9435 73.9915 13.5504 74.7469 12.8805L74.2273 12.1388C73.6668 12.6139 72.9695 12.9933 72.1287 12.9933C70.5599 12.9933 69.5106 11.9406 69.5106 10.3888C69.5106 8.81995 70.5872 7.75696 72.1561 7.75696C72.8704 7.75696 73.4583 8.0509 74.0189 8.53967L74.5931 7.79797C74.0325 7.2511 73.219 6.80334 72.115 6.80334C70.0574 6.80334 68.3211 8.10559 68.3211 10.3888C68.3211 12.6412 69.9173 13.9435 72.0433 13.9435ZM81.1166 13.9435C81.9711 13.9435 82.6273 13.7623 83.2426 13.5367L82.9931 12.6993C82.5009 12.8805 81.9984 13.007 81.3524 13.007C80.0365 13.007 79.6332 12.361 79.6332 11.1442L79.6332 7.91077L82.9794 7.91077L82.9794 6.97082L79.6332 6.97082L79.6332 4.78674L78.6796 4.78674L78.5258 6.97082L76.5673 7.0426L76.5673 7.91077L78.4848 7.91077L78.4848 11.1305C78.4848 12.8087 79.1273 13.9435 81.1166 13.9435ZM88.4229 13.776L89.5713 13.776L89.5713 6.97082L85.2612 6.97082L85.2612 7.91077L88.4229 7.91077L88.4229 13.776ZM88.8706 5.54553C89.3901 5.54553 89.7969 5.19348 89.7969 4.64661C89.7969 4.11682 89.3901 3.7511 88.8706 3.7511C88.3545 3.7511 87.9478 4.11682 87.9478 4.64661C87.9478 5.19348 88.3545 5.54553 88.8706 5.54553ZM96.6007 13.9435C98.3917 13.9435 99.9606 12.6412 99.9606 10.3888C99.9606 8.10559 98.3917 6.80334 96.6007 6.80334C94.8097 6.80334 93.2408 8.10559 93.2408 10.3888C93.2408 12.6412 94.8097 13.9435 96.6007 13.9435ZM96.6007 12.9933C95.2984 12.9933 94.4303 11.9406 94.4303 10.3888C94.4303 8.81995 95.2984 7.75696 96.6007 7.75696C97.9029 7.75696 98.7711 8.81995 98.7711 10.3888C98.7711 11.9406 97.9029 12.9933 96.6007 12.9933ZM102.102 13.776L103.251 13.776L103.251 9.02844C104.047 8.20471 104.594 7.79797 105.407 7.79797C106.525 7.79797 106.973 8.41321 106.973 9.70178L106.973 13.776L108.121 13.776L108.121 9.54797C108.121 7.75696 107.38 6.80334 105.77 6.80334C104.707 6.80334 103.921 7.37756 103.21 8.13293L103.152 8.13293L103.052 6.97082L102.102 6.97082L102.102 13.776ZM111.398 8.84729L112.18 8.84729L112.533 5.69934L112.56 4.15784L111.018 4.15784L111.049 5.69934L111.398 8.84729ZM114.617 8.84729L115.404 8.84729L115.752 5.69934L115.78 4.15784L114.242 4.15784L114.269 5.69934L114.617 8.84729ZM121.801 8.93274C122.43 8.93274 122.935 8.45764 122.935 7.75696C122.935 7.0426 122.43 6.5675 121.801 6.5675C121.168 6.5675 120.666 7.0426 120.666 7.75696C120.666 8.45764 121.168 8.93274 121.801 8.93274ZM121.801 13.9435C122.43 13.9435 122.935 13.4684 122.935 12.7677C122.935 12.0533 122.43 11.5782 121.801 11.5782C121.168 11.5782 120.666 12.0533 120.666 12.7677C120.666 13.4684 121.168 13.9435 121.801 13.9435ZM136.598 8.84729L137.38 8.84729L137.733 5.69934L137.76 4.15784L136.218 4.15784L136.249 5.69934L136.598 8.84729ZM139.817 8.84729L140.604 8.84729L140.952 5.69934L140.98 4.15784L139.442 4.15784L139.469 5.69934L139.817 8.84729ZM147.254 7.71252C148.412 7.71252 149.185 8.39954 149.28 9.8009L144.943 9.8009C145.152 8.45764 146.133 7.71252 147.254 7.71252ZM147.421 13.9435C148.511 13.9435 149.38 13.5812 150.053 13.1334L149.633 12.3746C149.017 12.7677 148.371 13.0206 147.561 13.0206C146.146 13.0206 145.052 12.2345 144.912 10.6964L150.275 10.6964C150.302 10.5153 150.333 10.2623 150.333 9.99573C150.333 8.07825 149.185 6.80334 147.223 6.80334C145.404 6.80334 143.754 8.14661 143.754 10.3614C143.754 12.6276 145.377 13.9435 147.421 13.9435ZM155.541 13.9435C157.486 13.9435 158.562 13.0206 158.562 11.9132C158.562 10.8776 158.019 10.3033 155.749 9.81457C154.365 9.52063 153.777 9.2677 153.777 8.67981C153.777 8.1637 154.18 7.69885 155.343 7.69885C156.211 7.69885 156.997 7.97913 157.626 8.41321L158.186 7.67151C157.513 7.21008 156.477 6.80334 155.442 6.80334C153.579 6.80334 152.615 7.64416 152.615 8.7345C152.615 9.75647 153.511 10.3614 155.274 10.7238C157.123 11.1031 157.404 11.4655 157.404 11.985C157.404 12.5592 156.829 13.048 155.681 13.048C154.42 13.048 153.511 12.6857 152.724 12.1251L152.195 12.8805C153.018 13.4547 154.211 13.9435 155.541 13.9435ZM165.117 13.9435C165.971 13.9435 166.627 13.7623 167.243 13.5367L166.993 12.6993C166.501 12.8805 165.998 13.007 165.352 13.007C164.037 13.007 163.633 12.361 163.633 11.1442L163.633 7.91077L166.979 7.91077L166.979 6.97082L163.633 6.97082L163.633 4.78674L162.68 4.78674L162.526 6.97082L160.567 7.0426L160.567 7.91077L162.485 7.91077L162.485 11.1305C162.485 12.8087 163.127 13.9435 165.117 13.9435ZM171.445 13.9435C172.409 13.9435 173.376 13.441 174.132 12.8531L174.173 12.8531L174.272 13.776L175.208 13.776L175.208 9.60266C175.208 7.91077 174.313 6.80334 172.454 6.80334C171.261 6.80334 170.112 7.33655 169.429 7.7843L169.876 8.56702C170.505 8.17737 171.374 7.75696 172.255 7.75696C173.571 7.75696 174.033 8.53967 174.063 9.46252C170.546 9.7428 169.135 10.4845 169.135 12.0123C169.135 13.2291 170.17 13.9435 171.445 13.9435ZM171.753 13.0206C170.967 13.0206 170.252 12.6993 170.252 11.9269C170.252 11.0314 171.151 10.4572 174.063 10.2213L174.063 12.0123C173.291 12.6549 172.522 13.0206 171.753 13.0206ZM180.881 13.9435C182.504 13.9435 183.961 12.5865 183.961 10.2623C183.961 8.1637 182.966 6.80334 181.13 6.80334C180.334 6.80334 179.466 7.21008 178.851 7.83899L178.81 7.83899L178.851 6.52307L178.851 3.8092L177.702 3.8092L177.702 13.776L178.625 13.776L178.724 13.0206L178.765 13.0206C179.411 13.5948 180.221 13.9435 180.881 13.9435ZM180.696 12.9796C180.208 12.9796 179.493 12.754 178.851 12.1798L178.851 8.7926C179.551 8.09192 180.249 7.77063 180.854 7.77063C182.211 7.77063 182.771 8.77893 182.771 10.276C182.771 11.9576 181.889 12.9796 180.696 12.9796ZM190.498 13.9435C191.239 13.9435 191.687 13.8033 192.32 13.5367L192.026 12.6857C191.561 12.8942 191.14 12.9933 190.751 12.9933C189.937 12.9933 189.407 12.5729 189.407 11.5782L189.407 3.8092L185.836 3.8092L185.836 4.74573L188.259 4.74573L188.259 11.4928C188.259 13.1027 189.055 13.9435 190.498 13.9435ZM197.623 13.776L198.771 13.776L198.771 6.97082L194.461 6.97082L194.461 7.91077L197.623 7.91077L197.623 13.776ZM198.071 5.54553C198.59 5.54553 198.997 5.19348 198.997 4.64661C198.997 4.11682 198.59 3.7511 198.071 3.7511C197.554 3.7511 197.148 4.11682 197.148 4.64661C197.148 5.19348 197.554 5.54553 198.071 5.54553ZM205.941 13.9435C207.886 13.9435 208.962 13.0206 208.962 11.9132C208.962 10.8776 208.419 10.3033 206.149 9.81457C204.765 9.52063 204.177 9.2677 204.177 8.67981C204.177 8.1637 204.58 7.69885 205.743 7.69885C206.611 7.69885 207.397 7.97913 208.026 8.41321L208.586 7.67151C207.913 7.21008 206.877 6.80334 205.842 6.80334C203.979 6.80334 203.015 7.64416 203.015 8.7345C203.015 9.75647 203.911 10.3614 205.674 10.7238C207.523 11.1031 207.804 11.4655 207.804 11.985C207.804 12.5592 207.229 13.048 206.081 13.048C204.82 13.048 203.911 12.6857 203.124 12.1251L202.595 12.8805C203.418 13.4547 204.611 13.9435 205.941 13.9435ZM211.302 13.776L212.451 13.776L212.451 9.02844C213.247 8.20471 213.794 7.79797 214.607 7.79797C215.725 7.79797 216.173 8.41321 216.173 9.70178L216.173 13.776L217.321 13.776L217.321 9.54797C217.321 7.75696 216.58 6.80334 214.97 6.80334C213.907 6.80334 213.121 7.37756 212.423 8.13293L212.379 8.13293L212.451 6.52307L212.451 3.8092L211.302 3.8092L211.302 13.776ZM222.854 7.71252C224.012 7.71252 224.785 8.39954 224.88 9.8009L220.543 9.8009C220.752 8.45764 221.732 7.71252 222.854 7.71252ZM223.021 13.9435C224.111 13.9435 224.98 13.5812 225.653 13.1334L225.232 12.3746C224.617 12.7677 223.971 13.0206 223.161 13.0206C221.746 13.0206 220.652 12.2345 220.512 10.6964L225.875 10.6964C225.902 10.5153 225.933 10.2623 225.933 9.99573C225.933 8.07825 224.785 6.80334 222.823 6.80334C221.004 6.80334 219.354 8.14661 219.354 10.3614C219.354 12.6276 220.977 13.9435 223.021 13.9435ZM230.594 13.9435C231.435 13.9435 232.245 13.4547 232.805 12.8805L232.846 12.8805L232.945 13.776L233.899 13.776L233.899 3.8092L232.751 3.8092L232.751 6.42737L232.805 7.68518L232.764 7.68518C232.176 7.12463 231.548 6.80334 230.734 6.80334C229.124 6.80334 227.641 8.17737 227.641 10.3888C227.641 12.6549 228.817 13.9435 230.594 13.9435ZM230.833 12.9796C229.572 12.9796 228.83 11.9987 228.83 10.3751C228.83 8.81995 229.78 7.77063 230.96 7.77063C231.548 7.77063 232.135 7.9928 232.751 8.56702L232.751 11.9576C232.149 12.6276 231.503 12.9796 230.833 12.9796ZM237.398 8.84729L238.18 8.84729L238.532 5.69934L238.56 4.15784L237.018 4.15784L237.049 5.69934L237.398 8.84729ZM240.617 8.84729L241.404 8.84729L241.752 5.69934L241.78 4.15784L240.241 4.15784L240.269 5.69934L240.617 8.84729ZM246.68 16.7565C248.221 16.1857 249.144 15.0372 249.144 13.3966C249.144 12.3063 248.71 11.6056 247.883 11.6056C247.281 11.6056 246.765 11.985 246.765 12.6686C246.765 13.3693 247.254 13.7213 247.855 13.7213C247.941 13.7213 248.036 13.7213 248.122 13.6906C248.081 14.798 247.507 15.5123 246.358 16.0284L246.68 16.7565Z" transform="translate(0 82.201)" />
        <path d="M18.9978 8.84729L19.7805 8.84729L20.1325 5.69934L20.1599 4.15784L18.6184 4.15784L18.6491 5.69934L18.9978 8.84729ZM22.2175 8.84729L23.0036 8.84729L23.3522 5.69934L23.3796 4.15784L21.8415 4.15784L21.8688 5.69934L22.2175 8.84729ZM30.8978 13.9435C31.6395 13.9435 32.0872 13.8033 32.7195 13.5367L32.4256 12.6857C31.9607 12.8942 31.5403 12.9933 31.1507 12.9933C30.3372 12.9933 29.8074 12.5729 29.8074 11.5782L29.8074 3.8092L26.2356 3.8092L26.2356 4.74573L28.659 4.74573L28.659 11.4928C28.659 13.1027 29.4554 13.9435 30.8978 13.9435ZM37.8007 13.9435C39.5917 13.9435 41.1605 12.6412 41.1605 10.3888C41.1605 8.10559 39.5917 6.80334 37.8007 6.80334C36.0097 6.80334 34.4408 8.10559 34.4408 10.3888C34.4408 12.6412 36.0097 13.9435 37.8007 13.9435ZM37.8007 12.9933C36.4984 12.9933 35.6303 11.9406 35.6303 10.3888C35.6303 8.81995 36.4984 7.75696 37.8007 7.75696C39.1029 7.75696 39.9711 8.81995 39.9711 10.3888C39.9711 11.9406 39.1029 12.9933 37.8007 12.9933ZM46.8433 13.9435C47.8516 13.9435 48.7915 13.5504 49.5469 12.8805L49.0273 12.1388C48.4668 12.6139 47.7695 12.9933 46.9287 12.9933C45.3599 12.9933 44.3106 11.9406 44.3106 10.3888C44.3106 8.81995 45.3872 7.75696 46.9561 7.75696C47.6704 7.75696 48.2583 8.0509 48.8189 8.53967L49.3931 7.79797C48.8325 7.2511 48.019 6.80334 46.915 6.80334C44.8574 6.80334 43.1211 8.10559 43.1211 10.3888C43.1211 12.6412 44.7173 13.9435 46.8433 13.9435ZM53.8453 13.9435C54.8092 13.9435 55.7765 13.441 56.5318 12.8531L56.5729 12.8531L56.672 13.776L57.6085 13.776L57.6085 9.60266C57.6085 7.91077 56.713 6.80334 54.8536 6.80334C53.6607 6.80334 52.5123 7.33655 51.8287 7.7843L52.2765 8.56702C52.9054 8.17737 53.7735 7.75696 54.6554 7.75696C55.9713 7.75696 56.4327 8.53967 56.4635 9.46252C52.9464 9.7428 51.5348 10.4845 51.5348 12.0123C51.5348 13.2291 52.5704 13.9435 53.8453 13.9435ZM54.1529 13.0206C53.3668 13.0206 52.6524 12.6993 52.6524 11.9269C52.6524 11.0314 53.5514 10.4572 56.4635 10.2213L56.4635 12.0123C55.691 12.6549 54.922 13.0206 54.1529 13.0206ZM64.4978 13.9435C65.2395 13.9435 65.6872 13.8033 66.3195 13.5367L66.0256 12.6857C65.5607 12.8942 65.1403 12.9933 64.7507 12.9933C63.9372 12.9933 63.4074 12.5729 63.4074 11.5782L63.4074 3.8092L59.8357 3.8092L59.8357 4.74573L62.259 4.74573L62.259 11.4928C62.259 13.1027 63.0554 13.9435 64.4978 13.9435ZM68.0408 15.7345L74.7606 15.7345L74.7606 14.7433L68.0408 14.7433L68.0408 15.7345ZM76.4135 13.776L77.5585 13.776L77.5585 8.84729C77.8969 8.14661 78.2045 7.79797 78.6796 7.79797C79.1855 7.79797 79.3803 8.20471 79.3803 8.98743L79.3803 13.776L80.4433 13.776L80.4433 8.84729C80.809 8.14661 81.0585 7.79797 81.537 7.79797C82.0395 7.79797 82.265 8.20471 82.265 8.98743L82.265 13.776L83.4135 13.776L83.4135 8.90539C83.4135 7.54504 82.8529 6.80334 81.8993 6.80334C81.1166 6.80334 80.6962 7.2511 80.3031 7.97913C80.1083 7.19641 79.6879 6.80334 79.0146 6.80334C78.2318 6.80334 77.8114 7.23743 77.4628 7.86633L77.4355 7.86633L77.3363 6.97082L76.4135 6.97082L76.4135 13.776ZM88.4536 7.71252C89.6123 7.71252 90.3848 8.39954 90.4805 9.8009L86.1431 9.8009C86.3516 8.45764 87.3325 7.71252 88.4536 7.71252ZM88.6211 13.9435C89.7114 13.9435 90.5796 13.5812 91.2529 13.1334L90.8325 12.3746C90.2173 12.7677 89.5713 13.0206 88.7612 13.0206C87.3462 13.0206 86.2524 12.2345 86.1123 10.6964L91.4751 10.6964C91.5024 10.5153 91.5332 10.2623 91.5332 9.99573C91.5332 8.07825 90.3848 6.80334 88.4229 6.80334C86.6045 6.80334 84.9536 8.14661 84.9536 10.3614C84.9536 12.6276 86.5772 13.9435 88.6211 13.9435ZM97.9166 13.9435C98.7711 13.9435 99.4274 13.7623 100.043 13.5367L99.7931 12.6993C99.3009 12.8805 98.7984 13.007 98.1525 13.007C96.8365 13.007 96.4332 12.361 96.4332 11.1442L96.4332 7.91077L99.7794 7.91077L99.7794 6.97082L96.4332 6.97082L96.4332 4.78674L95.4796 4.78674L95.3258 6.97082L93.3673 7.0426L93.3673 7.91077L95.2848 7.91077L95.2848 11.1305C95.2848 12.8087 95.9274 13.9435 97.9166 13.9435ZM102.844 13.776L103.992 13.776L103.992 9.78723C104.802 8.37219 105.77 7.83899 106.792 7.83899C107.325 7.83899 107.574 7.91077 108.053 8.07825L108.32 7.08362C107.899 6.87512 107.479 6.80334 106.973 6.80334C105.715 6.80334 104.649 7.49036 103.938 8.58069L103.893 8.58069L103.798 6.97082L102.844 6.97082L102.844 13.776ZM113.623 13.776L114.771 13.776L114.771 6.97082L110.461 6.97082L110.461 7.91077L113.623 7.91077L113.623 13.776ZM114.071 5.54553C114.59 5.54553 114.997 5.19348 114.997 4.64661C114.997 4.11682 114.59 3.7511 114.071 3.7511C113.555 3.7511 113.148 4.11682 113.148 4.64661C113.148 5.19348 113.555 5.54553 114.071 5.54553ZM122.443 13.9435C123.452 13.9435 124.392 13.5504 125.147 12.8805L124.627 12.1388C124.067 12.6139 123.37 12.9933 122.529 12.9933C120.96 12.9933 119.911 11.9406 119.911 10.3888C119.911 8.81995 120.987 7.75696 122.556 7.75696C123.27 7.75696 123.858 8.0509 124.419 8.53967L124.993 7.79797C124.433 7.2511 123.619 6.80334 122.515 6.80334C120.457 6.80334 118.721 8.10559 118.721 10.3888C118.721 12.6412 120.317 13.9435 122.443 13.9435ZM130.341 13.9435C132.286 13.9435 133.362 13.0206 133.362 11.9132C133.362 10.8776 132.819 10.3033 130.549 9.81457C129.165 9.52063 128.577 9.2677 128.577 8.67981C128.577 8.1637 128.98 7.69885 130.143 7.69885C131.011 7.69885 131.797 7.97913 132.426 8.41321L132.986 7.67151C132.313 7.21008 131.277 6.80334 130.242 6.80334C128.379 6.80334 127.415 7.64416 127.415 8.7345C127.415 9.75647 128.311 10.3614 130.074 10.7238C131.923 11.1031 132.204 11.4655 132.204 11.985C132.204 12.5592 131.629 13.048 130.481 13.048C129.22 13.048 128.311 12.6857 127.524 12.1251L126.995 12.8805C127.818 13.4547 129.011 13.9435 130.341 13.9435ZM136.598 8.84729L137.38 8.84729L137.733 5.69934L137.76 4.15784L136.218 4.15784L136.249 5.69934L136.598 8.84729ZM139.817 8.84729L140.604 8.84729L140.952 5.69934L140.98 4.15784L139.442 4.15784L139.469 5.69934L139.817 8.84729ZM147.001 8.93274C147.63 8.93274 148.135 8.45764 148.135 7.75696C148.135 7.0426 147.63 6.5675 147.001 6.5675C146.368 6.5675 145.866 7.0426 145.866 7.75696C145.866 8.45764 146.368 8.93274 147.001 8.93274ZM147.001 13.9435C147.63 13.9435 148.135 13.4684 148.135 12.7677C148.135 12.0533 147.63 11.5782 147.001 11.5782C146.368 11.5782 145.866 12.0533 145.866 12.7677C145.866 13.4684 146.368 13.9435 147.001 13.9435ZM161.798 8.84729L162.58 8.84729L162.933 5.69934L162.96 4.15784L161.418 4.15784L161.449 5.69934L161.798 8.84729ZM165.017 8.84729L165.804 8.84729L166.152 5.69934L166.18 4.15784L164.641 4.15784L164.669 5.69934L165.017 8.84729ZM171.445 13.9435C172.409 13.9435 173.376 13.441 174.132 12.8531L174.173 12.8531L174.272 13.776L175.208 13.776L175.208 9.60266C175.208 7.91077 174.313 6.80334 172.454 6.80334C171.261 6.80334 170.112 7.33655 169.429 7.7843L169.876 8.56702C170.505 8.17737 171.374 7.75696 172.255 7.75696C173.571 7.75696 174.033 8.53967 174.063 9.46252C170.546 9.7428 169.135 10.4845 169.135 12.0123C169.135 13.2291 170.17 13.9435 171.445 13.9435ZM171.753 13.0206C170.967 13.0206 170.252 12.6993 170.252 11.9269C170.252 11.0314 171.151 10.4572 174.063 10.2213L174.063 12.0123C173.291 12.6549 172.522 13.0206 171.753 13.0206ZM181.243 13.9435C182.252 13.9435 183.191 13.5504 183.947 12.8805L183.427 12.1388C182.867 12.6139 182.17 12.9933 181.329 12.9933C179.76 12.9933 178.711 11.9406 178.711 10.3888C178.711 8.81995 179.787 7.75696 181.356 7.75696C182.07 7.75696 182.658 8.0509 183.219 8.53967L183.793 7.79797C183.232 7.2511 182.419 6.80334 181.315 6.80334C179.257 6.80334 177.521 8.10559 177.521 10.3888C177.521 12.6412 179.117 13.9435 181.243 13.9435ZM190.317 13.9435C191.171 13.9435 191.827 13.7623 192.443 13.5367L192.193 12.6993C191.701 12.8805 191.198 13.007 190.552 13.007C189.236 13.007 188.833 12.361 188.833 11.1442L188.833 7.91077L192.179 7.91077L192.179 6.97082L188.833 6.97082L188.833 4.78674L187.88 4.78674L187.726 6.97082L185.767 7.0426L185.767 7.91077L187.685 7.91077L187.685 11.1305C187.685 12.8087 188.327 13.9435 190.317 13.9435ZM197.623 13.776L198.771 13.776L198.771 6.97082L194.461 6.97082L194.461 7.91077L197.623 7.91077L197.623 13.776ZM198.071 5.54553C198.59 5.54553 198.997 5.19348 198.997 4.64661C198.997 4.11682 198.59 3.7511 198.071 3.7511C197.554 3.7511 197.148 4.11682 197.148 4.64661C197.148 5.19348 197.554 5.54553 198.071 5.54553ZM205.185 13.776L206.471 13.776L209.287 6.97082L208.18 6.97082L206.611 10.8365C206.33 11.5236 206.108 12.1935 205.869 12.8395L205.814 12.8395C205.575 12.1935 205.326 11.5236 205.045 10.8365L203.476 6.97082L202.314 6.97082L205.185 13.776ZM214.454 7.71252C215.612 7.71252 216.385 8.39954 216.48 9.8009L212.143 9.8009C212.352 8.45764 213.332 7.71252 214.454 7.71252ZM214.621 13.9435C215.711 13.9435 216.58 13.5812 217.253 13.1334L216.832 12.3746C216.217 12.7677 215.571 13.0206 214.761 13.0206C213.346 13.0206 212.252 12.2345 212.112 10.6964L217.475 10.6964C217.502 10.5153 217.533 10.2623 217.533 9.99573C217.533 8.07825 216.385 6.80334 214.423 6.80334C212.604 6.80334 210.954 8.14661 210.954 10.3614C210.954 12.6276 212.577 13.9435 214.621 13.9435ZM220.598 8.84729L221.38 8.84729L221.732 5.69934L221.76 4.15784L220.218 4.15784L220.249 5.69934L220.598 8.84729ZM223.817 8.84729L224.604 8.84729L224.952 5.69934L224.98 4.15784L223.441 4.15784L223.469 5.69934L223.817 8.84729Z" transform="translate(0 108.201)" />
        <path d="M1.3877 15.9054L2.23877 15.9054C3.98877 15.9054 4.81592 15.485 4.81592 14.0426C4.81592 13.0206 4.68945 12.2789 4.68945 11.339C4.68945 10.7955 5.06885 10.2623 6.71973 10.2487L6.71973 9.52063C5.06885 9.50696 4.68945 8.97375 4.68945 8.42688C4.68945 7.54504 4.81592 6.69055 4.81592 5.72668C4.81592 4.2843 3.98877 3.86389 2.23877 3.86389L1.3877 3.86389L1.3877 4.52356L2.09863 4.52356C3.52734 4.52356 3.84863 4.88586 3.84863 5.79504C3.84863 6.59485 3.7666 7.46301 3.7666 8.33118C3.7666 9.24036 4.06055 9.68811 5.02441 9.85559L5.02441 9.9137C4.06055 10.0812 3.7666 10.5289 3.7666 11.4381C3.7666 12.3883 3.84863 13.1163 3.84863 13.9708C3.84863 14.8834 3.52734 15.2457 2.09863 15.2457L1.3877 15.2457L1.3877 15.9054Z" transform="translate(0 134.201)" />
      </g>
      <path d="M3.19238 10.1222L3.44531 8.0509L5.29102 8.0509L5.0415 10.1222L3.19238 10.1222ZM1.98926 13.776L2.74463 13.776L3.09326 10.9186L4.94238 10.9186L4.59033 13.776L5.34912 13.776L5.69775 10.9186L6.98633 10.9186L6.98633 10.1222L5.79688 10.1222L6.04639 8.0509L7.2666 8.0509L7.2666 7.23743L6.14551 7.23743L6.45312 4.67737L5.71143 4.67737L5.39014 7.23743L3.54102 7.23743L3.84863 4.67737L3.10693 4.67737L2.78564 7.23743L1.49707 7.23743L1.49707 8.0509L2.68652 8.0509L2.43701 10.1222L1.2168 10.1222L1.2168 10.9186L2.33789 10.9186L1.98926 13.776ZM18.1296 13.776L23.8684 13.776L23.8684 12.7814L21.5886 12.7814L21.5886 5.57288L23.8684 5.57288L23.8684 4.59192L18.1296 4.59192L18.1296 5.57288L20.4128 5.57288L20.4128 12.7814L18.1296 12.7814L18.1296 13.776ZM26.5022 13.776L27.6507 13.776L27.6507 9.02844C28.4471 8.20471 28.9939 7.79797 29.8074 7.79797C30.9251 7.79797 31.3729 8.41321 31.3729 9.70178L31.3729 13.776L32.5213 13.776L32.5213 9.54797C32.5213 7.75696 31.7796 6.80334 30.1697 6.80334C29.1067 6.80334 28.3206 7.37756 27.6097 8.13293L27.5516 8.13293L27.4524 6.97082L26.5022 6.97082L26.5022 13.776ZM37.9408 13.9435C39.8856 13.9435 40.9623 13.0206 40.9623 11.9132C40.9623 10.8776 40.4188 10.3033 38.1493 9.81457C36.765 9.52063 36.1772 9.2677 36.1772 8.67981C36.1772 8.1637 36.5805 7.69885 37.7426 7.69885C38.6107 7.69885 39.3969 7.97913 40.0258 8.41321L40.5863 7.67151C39.913 7.21008 38.8773 6.80334 37.8417 6.80334C35.9789 6.80334 35.015 7.64416 35.015 8.7345C35.015 9.75647 35.9105 10.3614 37.6742 10.7238C39.5233 11.1031 39.8036 11.4655 39.8036 11.985C39.8036 12.5592 39.2294 13.048 38.081 13.048C36.8197 13.048 35.9105 12.6857 35.1244 12.1251L34.5946 12.8805C35.4184 13.4547 36.6112 13.9435 37.9408 13.9435ZM47.5166 13.9435C48.3711 13.9435 49.0273 13.7623 49.6426 13.5367L49.3931 12.6993C48.9009 12.8805 48.3984 13.007 47.7524 13.007C46.4365 13.007 46.0332 12.361 46.0332 11.1442L46.0332 7.91077L49.3794 7.91077L49.3794 6.97082L46.0332 6.97082L46.0332 4.78674L45.0796 4.78674L44.9258 6.97082L42.9673 7.0426L42.9673 7.91077L44.8848 7.91077L44.8848 11.1305C44.8848 12.8087 45.5273 13.9435 47.5166 13.9435ZM53.8453 13.9435C54.8092 13.9435 55.7765 13.441 56.5318 12.8531L56.5729 12.8531L56.672 13.776L57.6085 13.776L57.6085 9.60266C57.6085 7.91077 56.713 6.80334 54.8536 6.80334C53.6607 6.80334 52.5123 7.33655 51.8287 7.7843L52.2765 8.56702C52.9054 8.17737 53.7735 7.75696 54.6554 7.75696C55.9713 7.75696 56.4327 8.53967 56.4635 9.46252C52.9464 9.7428 51.5348 10.4845 51.5348 12.0123C51.5348 13.2291 52.5704 13.9435 53.8453 13.9435ZM54.1529 13.0206C53.3668 13.0206 52.6524 12.6993 52.6524 11.9269C52.6524 11.0314 53.5514 10.4572 56.4635 10.2213L56.4635 12.0123C55.691 12.6549 54.922 13.0206 54.1529 13.0206ZM64.4978 13.9435C65.2395 13.9435 65.6872 13.8033 66.3195 13.5367L66.0256 12.6857C65.5607 12.8942 65.1403 12.9933 64.7507 12.9933C63.9372 12.9933 63.4074 12.5729 63.4074 11.5782L63.4074 3.8092L59.8357 3.8092L59.8357 4.74573L62.259 4.74573L62.259 11.4928C62.259 13.1027 63.0554 13.9435 64.4978 13.9435ZM70.6453 13.9435C71.6092 13.9435 72.5765 13.441 73.3318 12.8531L73.3729 12.8531L73.472 13.776L74.4085 13.776L74.4085 9.60266C74.4085 7.91077 73.513 6.80334 71.6536 6.80334C70.4607 6.80334 69.3123 7.33655 68.6287 7.7843L69.0765 8.56702C69.7054 8.17737 70.5735 7.75696 71.4554 7.75696C72.7713 7.75696 73.2327 8.53967 73.2635 9.46252C69.7464 9.7428 68.3348 10.4845 68.3348 12.0123C68.3348 13.2291 69.3704 13.9435 70.6453 13.9435ZM70.9529 13.0206C70.1668 13.0206 69.4524 12.6993 69.4524 11.9269C69.4524 11.0314 70.3514 10.4572 73.2635 10.2213L73.2635 12.0123C72.491 12.6549 71.722 13.0206 70.9529 13.0206ZM77.644 13.776L78.7924 13.776L78.7924 9.78723C79.6024 8.37219 80.5697 7.83899 81.5917 7.83899C82.1249 7.83899 82.3744 7.91077 82.8529 8.07825L83.1195 7.08362C82.6991 6.87512 82.2787 6.80334 81.7729 6.80334C80.515 6.80334 79.4486 7.49036 78.7377 8.58069L78.6933 8.58069L78.5976 6.97082L77.644 6.97082L77.644 13.776ZM96.6007 13.9435C98.3917 13.9435 99.9606 12.6412 99.9606 10.3888C99.9606 8.10559 98.3917 6.80334 96.6007 6.80334C94.8097 6.80334 93.2408 8.10559 93.2408 10.3888C93.2408 12.6412 94.8097 13.9435 96.6007 13.9435ZM96.6007 12.9933C95.2984 12.9933 94.4303 11.9406 94.4303 10.3888C94.4303 8.81995 95.2984 7.75696 96.6007 7.75696C97.9029 7.75696 98.7711 8.81995 98.7711 10.3888C98.7711 11.9406 97.9029 12.9933 96.6007 12.9933ZM112.645 13.9435C113.609 13.9435 114.576 13.441 115.332 12.8531L115.373 12.8531L115.472 13.776L116.409 13.776L116.409 9.60266C116.409 7.91077 115.513 6.80334 113.654 6.80334C112.461 6.80334 111.312 7.33655 110.629 7.7843L111.076 8.56702C111.705 8.17737 112.574 7.75696 113.455 7.75696C114.771 7.75696 115.233 8.53967 115.263 9.46252C111.746 9.7428 110.335 10.4845 110.335 12.0123C110.335 13.2291 111.37 13.9435 112.645 13.9435ZM112.953 13.0206C112.167 13.0206 111.452 12.6993 111.452 11.9269C111.452 11.0314 112.351 10.4572 115.263 10.2213L115.263 12.0123C114.491 12.6549 113.722 13.0206 112.953 13.0206ZM121.743 16.9137C124.053 16.9137 125.523 15.8063 125.523 14.5314C125.523 13.3829 124.685 12.9352 122.935 12.9352L121.408 12.9352C120.512 12.9352 119.993 12.6857 119.993 12.1525C119.993 11.8312 120.191 11.5782 120.526 11.3663C120.905 11.5372 121.326 11.6193 121.674 11.6193C123.144 11.6193 124.306 10.7374 124.306 9.28137C124.306 8.7345 124.039 8.23205 123.732 7.91077L125.496 7.91077L125.496 6.97082L122.683 6.97082C122.389 6.86145 122.067 6.80334 121.674 6.80334C120.232 6.80334 119.001 7.75696 119.001 9.24036C119.001 10.0504 119.377 10.6554 119.839 11.004L119.839 11.0587C119.323 11.4108 119.029 11.8995 119.029 12.3336C119.029 12.9078 119.364 13.2565 119.729 13.4547L119.729 13.5094C119.001 13.9298 118.608 14.4767 118.608 15.0236C118.608 16.2267 119.757 16.9137 121.743 16.9137ZM121.674 10.8502C120.82 10.8502 120.105 10.2213 120.105 9.24036C120.105 8.28674 120.82 7.64416 121.674 7.64416C122.542 7.64416 123.243 8.28674 123.243 9.24036C123.243 10.2213 122.542 10.8502 121.674 10.8502ZM121.828 16.0729C120.372 16.0729 119.603 15.6251 119.603 14.9108C119.603 14.5177 119.825 14.1246 120.471 13.776C120.765 13.8614 121.114 13.8888 121.507 13.8888L122.836 13.8888C123.872 13.8888 124.392 14.0699 124.392 14.7125C124.392 15.4132 123.411 16.0729 121.828 16.0729ZM130.454 7.71252C131.612 7.71252 132.385 8.39954 132.48 9.8009L128.143 9.8009C128.352 8.45764 129.333 7.71252 130.454 7.71252ZM130.621 13.9435C131.711 13.9435 132.58 13.5812 133.253 13.1334L132.833 12.3746C132.217 12.7677 131.571 13.0206 130.761 13.0206C129.346 13.0206 128.252 12.2345 128.112 10.6964L133.475 10.6964C133.502 10.5153 133.533 10.2623 133.533 9.99573C133.533 8.07825 132.385 6.80334 130.423 6.80334C128.605 6.80334 126.954 8.14661 126.954 10.3614C126.954 12.6276 128.577 13.9435 130.621 13.9435ZM135.702 13.776L136.851 13.776L136.851 9.02844C137.647 8.20471 138.194 7.79797 139.007 7.79797C140.125 7.79797 140.573 8.41321 140.573 9.70178L140.573 13.776L141.721 13.776L141.721 9.54797C141.721 7.75696 140.98 6.80334 139.37 6.80334C138.307 6.80334 137.521 7.37756 136.81 8.13293L136.752 8.13293L136.652 6.97082L135.702 6.97082L135.702 13.776ZM148.317 13.9435C149.171 13.9435 149.827 13.7623 150.443 13.5367L150.193 12.6993C149.701 12.8805 149.198 13.007 148.552 13.007C147.237 13.007 146.833 12.361 146.833 11.1442L146.833 7.91077L150.179 7.91077L150.179 6.97082L146.833 6.97082L146.833 4.78674L145.88 4.78674L145.726 6.97082L143.767 7.0426L143.767 7.91077L145.685 7.91077L145.685 11.1305C145.685 12.8087 146.327 13.9435 148.317 13.9435ZM155.654 7.71252C156.812 7.71252 157.585 8.39954 157.68 9.8009L153.343 9.8009C153.552 8.45764 154.533 7.71252 155.654 7.71252ZM155.821 13.9435C156.911 13.9435 157.78 13.5812 158.453 13.1334L158.033 12.3746C157.417 12.7677 156.771 13.0206 155.961 13.0206C154.546 13.0206 153.452 12.2345 153.312 10.6964L158.675 10.6964C158.702 10.5153 158.733 10.2623 158.733 9.99573C158.733 8.07825 157.585 6.80334 155.623 6.80334C153.804 6.80334 152.154 8.14661 152.154 10.3614C152.154 12.6276 153.777 13.9435 155.821 13.9435ZM171.585 13.776L172.871 13.776L175.687 6.97082L174.58 6.97082L173.011 10.8365C172.73 11.5236 172.508 12.1935 172.269 12.8395L172.214 12.8395C171.975 12.1935 171.726 11.5236 171.445 10.8365L169.876 6.97082L168.714 6.97082L171.585 13.776ZM180.823 13.776L181.971 13.776L181.971 6.97082L177.661 6.97082L177.661 7.91077L180.823 7.91077L180.823 13.776ZM181.271 5.54553C181.79 5.54553 182.197 5.19348 182.197 4.64661C182.197 4.11682 181.79 3.7511 181.271 3.7511C180.754 3.7511 180.348 4.11682 180.348 4.64661C180.348 5.19348 180.754 5.54553 181.271 5.54553ZM188.245 13.9435C189.209 13.9435 190.176 13.441 190.932 12.8531L190.973 12.8531L191.072 13.776L192.008 13.776L192.008 9.60266C192.008 7.91077 191.113 6.80334 189.254 6.80334C188.061 6.80334 186.912 7.33655 186.229 7.7843L186.676 8.56702C187.305 8.17737 188.174 7.75696 189.055 7.75696C190.371 7.75696 190.833 8.53967 190.863 9.46252C187.346 9.7428 185.935 10.4845 185.935 12.0123C185.935 13.2291 186.97 13.9435 188.245 13.9435ZM188.553 13.0206C187.767 13.0206 187.052 12.6993 187.052 11.9269C187.052 11.0314 187.951 10.4572 190.863 10.2213L190.863 12.0123C190.091 12.6549 189.322 13.0206 188.553 13.0206ZM206.443 13.9435C207.452 13.9435 208.391 13.5504 209.147 12.8805L208.627 12.1388C208.067 12.6139 207.369 12.9933 206.529 12.9933C204.96 12.9933 203.911 11.9406 203.911 10.3888C203.911 8.81995 204.987 7.75696 206.556 7.75696C207.27 7.75696 207.858 8.0509 208.419 8.53967L208.993 7.79797C208.432 7.2511 207.619 6.80334 206.515 6.80334C204.457 6.80334 202.721 8.10559 202.721 10.3888C202.721 12.6412 204.317 13.9435 206.443 13.9435ZM213.445 13.9435C214.495 13.9435 215.291 13.3829 215.978 12.5865L216.033 12.5865L216.132 13.776L217.068 13.776L217.068 6.97082L215.923 6.97082L215.923 11.691C215.165 12.5729 214.59 12.9489 213.808 12.9489C212.673 12.9489 212.239 12.3336 212.239 11.045L212.239 6.97082L211.077 6.97082L211.077 11.1989C211.077 12.9933 211.818 13.9435 213.445 13.9435ZM220.444 13.776L221.592 13.776L221.592 9.78723C222.402 8.37219 223.37 7.83899 224.392 7.83899C224.925 7.83899 225.174 7.91077 225.653 8.07825L225.919 7.08362C225.499 6.87512 225.079 6.80334 224.573 6.80334C223.315 6.80334 222.249 7.49036 221.538 8.58069L221.493 8.58069L221.398 6.97082L220.444 6.97082L220.444 13.776ZM232.498 13.9435C233.239 13.9435 233.687 13.8033 234.319 13.5367L234.026 12.6857C233.561 12.8942 233.14 12.9933 232.751 12.9933C231.937 12.9933 231.407 12.5729 231.407 11.5782L231.407 3.8092L227.836 3.8092L227.836 4.74573L230.259 4.74573L230.259 11.4928C230.259 13.1027 231.055 13.9435 232.498 13.9435Z" transform="" fill="#004AAD" />
      <path d="M4.84326 13.9435C5.85156 13.9435 6.7915 13.5504 7.54688 12.8805L7.02734 12.1388C6.4668 12.6139 5.76953 12.9933 4.92871 12.9933C3.35986 12.9933 2.31055 11.9406 2.31055 10.3888C2.31055 8.81995 3.38721 7.75696 4.95605 7.75696C5.67041 7.75696 6.2583 8.0509 6.81885 8.53967L7.39307 7.79797C6.83252 7.2511 6.01904 6.80334 4.91504 6.80334C2.85742 6.80334 1.12109 8.10559 1.12109 10.3888C1.12109 12.6412 2.71729 13.9435 4.84326 13.9435ZM11.8453 13.9435C12.8946 13.9435 13.691 13.3829 14.378 12.5865L14.4327 12.5865L14.5318 13.776L15.4684 13.776L15.4684 6.97082L14.3233 6.97082L14.3233 11.691C13.5646 12.5729 12.9903 12.9489 12.2076 12.9489C11.0729 12.9489 10.6388 12.3336 10.6388 11.045L10.6388 6.97082L9.47666 6.97082L9.47666 11.1989C9.47666 12.9933 10.2184 13.9435 11.8453 13.9435ZM18.8439 13.776L19.9924 13.776L19.9924 9.78723C20.8024 8.37219 21.7697 7.83899 22.7917 7.83899C23.3249 7.83899 23.5744 7.91077 24.0529 8.07825L24.3195 7.08362C23.8991 6.87512 23.4787 6.80334 22.9729 6.80334C21.715 6.80334 20.6486 7.49036 19.9377 8.58069L19.8933 8.58069L19.7976 6.97082L18.8439 6.97082L18.8439 13.776ZM30.8978 13.9435C31.6395 13.9435 32.0872 13.8033 32.7195 13.5367L32.4256 12.6857C31.9607 12.8942 31.5403 12.9933 31.1507 12.9933C30.3372 12.9933 29.8074 12.5729 29.8074 11.5782L29.8074 3.8092L26.2356 3.8092L26.2356 4.74573L28.659 4.74573L28.659 11.4928C28.659 13.1027 29.4554 13.9435 30.8978 13.9435ZM43.1895 9.58899L49.2085 9.58899L49.2085 8.72082L43.1895 8.72082L43.1895 9.58899ZM54.7408 13.9435C56.6856 13.9435 57.7623 13.0206 57.7623 11.9132C57.7623 10.8776 57.2189 10.3033 54.9493 9.81457C53.565 9.52063 52.9772 9.2677 52.9772 8.67981C52.9772 8.1637 53.3805 7.69885 54.5426 7.69885C55.4107 7.69885 56.1969 7.97913 56.8258 8.41321L57.3863 7.67151C56.713 7.21008 55.6773 6.80334 54.6417 6.80334C52.7789 6.80334 51.815 7.64416 51.815 8.7345C51.815 9.75647 52.7106 10.3614 54.4742 10.7238C56.3233 11.1031 56.6036 11.4655 56.6036 11.985C56.6036 12.5592 56.0294 13.048 54.881 13.048C53.6197 13.048 52.7106 12.6857 51.9244 12.1251L51.3946 12.8805C52.2184 13.4547 53.4112 13.9435 54.7408 13.9435ZM63.069 13.9435C65.0856 13.9435 66.3195 12.7814 66.3195 11.3253C66.3195 9.96838 65.4206 9.33948 64.2893 8.87463L63.0007 8.3175C62.2146 7.9928 61.3635 7.67151 61.3635 6.78967C61.3635 5.96252 62.0744 5.44641 63.1408 5.44641C64.091 5.44641 64.7917 5.78137 65.3933 6.31457L66.0085 5.5592C65.3386 4.88586 64.3303 4.42444 63.1818 4.42444C61.4318 4.42444 60.1706 5.46008 60.1706 6.86145C60.1706 8.20471 61.237 8.86096 62.1599 9.22668L63.4758 9.8009C64.4123 10.2076 65.1267 10.4845 65.1267 11.4655C65.1267 12.3199 64.385 12.9215 63.1272 12.9215C62.0744 12.9215 61.1242 12.4601 60.4372 11.7731L59.7365 12.5865C60.5637 13.4137 61.7258 13.9435 63.069 13.9435ZM69.0765 13.776L74.7742 13.776L74.7742 12.7814L70.2249 12.7814L70.2249 4.59192L69.0765 4.59192L69.0765 13.776ZM85.3023 13.776L86.4507 13.776L86.4507 9.02844C87.2471 8.20471 87.794 7.79797 88.6074 7.79797C89.7251 7.79797 90.1729 8.41321 90.1729 9.70178L90.1729 13.776L91.3213 13.776L91.3213 9.54797C91.3213 7.75696 90.5796 6.80334 88.9697 6.80334C87.9067 6.80334 87.1206 7.37756 86.4233 8.13293L86.3789 8.13293L86.4507 6.52307L86.4507 3.8092L85.3023 3.8092L85.3023 13.776ZM97.9166 13.9435C98.7711 13.9435 99.4274 13.7623 100.043 13.5367L99.7931 12.6993C99.3009 12.8805 98.7984 13.007 98.1525 13.007C96.8365 13.007 96.4332 12.361 96.4332 11.1442L96.4332 7.91077L99.7794 7.91077L99.7794 6.97082L96.4332 6.97082L96.4332 4.78674L95.4796 4.78674L95.3258 6.97082L93.3673 7.0426L93.3673 7.91077L95.2848 7.91077L95.2848 11.1305C95.2848 12.8087 95.9274 13.9435 97.9166 13.9435ZM106.317 13.9435C107.171 13.9435 107.827 13.7623 108.443 13.5367L108.193 12.6993C107.701 12.8805 107.198 13.007 106.552 13.007C105.237 13.007 104.833 12.361 104.833 11.1442L104.833 7.91077L108.179 7.91077L108.179 6.97082L104.833 6.97082L104.833 4.78674L103.88 4.78674L103.726 6.97082L101.767 7.0426L101.767 7.91077L103.685 7.91077L103.685 11.1305C103.685 12.8087 104.327 13.9435 106.317 13.9435ZM110.502 16.6471L111.651 16.6471L111.651 14.3502L111.593 13.0616L111.637 13.0616C112.239 13.6222 113.035 13.9435 113.667 13.9435C115.305 13.9435 116.761 12.5865 116.761 10.276C116.761 8.1637 115.78 6.80334 113.948 6.80334C113.107 6.80334 112.225 7.23743 111.593 7.83899L111.552 7.83899L111.452 6.97082L110.502 6.97082L110.502 16.6471ZM113.469 12.9796C113.008 12.9796 112.293 12.754 111.651 12.1798L111.651 8.7926C112.351 8.09192 113.049 7.77063 113.654 7.77063C115.011 7.77063 115.571 8.77893 115.571 10.276C115.571 11.9576 114.689 12.9796 113.469 12.9796ZM121.941 13.9435C123.886 13.9435 124.962 13.0206 124.962 11.9132C124.962 10.8776 124.419 10.3033 122.149 9.81457C120.765 9.52063 120.177 9.2677 120.177 8.67981C120.177 8.1637 120.58 7.69885 121.743 7.69885C122.611 7.69885 123.397 7.97913 124.026 8.41321L124.586 7.67151C123.913 7.21008 122.877 6.80334 121.842 6.80334C119.979 6.80334 119.015 7.64416 119.015 8.7345C119.015 9.75647 119.911 10.3614 121.674 10.7238C123.523 11.1031 123.804 11.4655 123.804 11.985C123.804 12.5592 123.229 13.048 122.081 13.048C120.82 13.048 119.911 12.6857 119.124 12.1251L118.595 12.8805C119.418 13.4547 120.611 13.9435 121.941 13.9435ZM130.201 8.93274C130.83 8.93274 131.335 8.45764 131.335 7.75696C131.335 7.0426 130.83 6.5675 130.201 6.5675C129.568 6.5675 129.066 7.0426 129.066 7.75696C129.066 8.45764 129.568 8.93274 130.201 8.93274ZM130.201 13.9435C130.83 13.9435 131.335 13.4684 131.335 12.7677C131.335 12.0533 130.83 11.5782 130.201 11.5782C129.568 11.5782 129.066 12.0533 129.066 12.7677C129.066 13.4684 129.568 13.9435 130.201 13.9435ZM135.788 16.0148L136.823 16.0148L141.414 3.83655L140.378 3.83655L135.788 16.0148ZM144.188 16.0148L145.223 16.0148L149.814 3.83655L148.778 3.83655L144.188 16.0148ZM155.343 16.9137C157.653 16.9137 159.123 15.8063 159.123 14.5314C159.123 13.3829 158.285 12.9352 156.535 12.9352L155.008 12.9352C154.112 12.9352 153.593 12.6857 153.593 12.1525C153.593 11.8312 153.791 11.5782 154.126 11.3663C154.505 11.5372 154.926 11.6193 155.274 11.6193C156.744 11.6193 157.906 10.7374 157.906 9.28137C157.906 8.7345 157.639 8.23205 157.332 7.91077L159.096 7.91077L159.096 6.97082L156.283 6.97082C155.989 6.86145 155.667 6.80334 155.274 6.80334C153.832 6.80334 152.601 7.75696 152.601 9.24036C152.601 10.0504 152.977 10.6554 153.439 11.004L153.439 11.0587C152.923 11.4108 152.629 11.8995 152.629 12.3336C152.629 12.9078 152.964 13.2565 153.329 13.4547L153.329 13.5094C152.601 13.9298 152.208 14.4767 152.208 15.0236C152.208 16.2267 153.357 16.9137 155.343 16.9137ZM155.274 10.8502C154.42 10.8502 153.705 10.2213 153.705 9.24036C153.705 8.28674 154.42 7.64416 155.274 7.64416C156.142 7.64416 156.843 8.28674 156.843 9.24036C156.843 10.2213 156.142 10.8502 155.274 10.8502ZM155.428 16.0729C153.972 16.0729 153.203 15.6251 153.203 14.9108C153.203 14.5177 153.425 14.1246 154.071 13.776C154.365 13.8614 154.714 13.8888 155.107 13.8888L156.436 13.8888C157.472 13.8888 157.992 14.0699 157.992 14.7125C157.992 15.4132 157.011 16.0729 155.428 16.0729ZM164.054 7.71252C165.212 7.71252 165.985 8.39954 166.08 9.8009L161.743 9.8009C161.952 8.45764 162.933 7.71252 164.054 7.71252ZM164.221 13.9435C165.311 13.9435 166.18 13.5812 166.853 13.1334L166.433 12.3746C165.817 12.7677 165.171 13.0206 164.361 13.0206C162.946 13.0206 161.852 12.2345 161.712 10.6964L167.075 10.6964C167.102 10.5153 167.133 10.2623 167.133 9.99573C167.133 8.07825 165.985 6.80334 164.023 6.80334C162.204 6.80334 160.554 8.14661 160.554 10.3614C160.554 12.6276 162.177 13.9435 164.221 13.9435ZM173.517 13.9435C174.371 13.9435 175.027 13.7623 175.643 13.5367L175.393 12.6993C174.901 12.8805 174.398 13.007 173.752 13.007C172.437 13.007 172.033 12.361 172.033 11.1442L172.033 7.91077L175.379 7.91077L175.379 6.97082L172.033 6.97082L172.033 4.78674L171.08 4.78674L170.926 6.97082L168.967 7.0426L168.967 7.91077L170.885 7.91077L170.885 11.1305C170.885 12.8087 171.527 13.9435 173.517 13.9435ZM180.601 13.9435C181.23 13.9435 181.735 13.4684 181.735 12.7677C181.735 12.0533 181.23 11.5782 180.601 11.5782C179.968 11.5782 179.466 12.0533 179.466 12.7677C179.466 13.4684 179.968 13.9435 180.601 13.9435ZM188.245 13.9435C189.209 13.9435 190.176 13.441 190.932 12.8531L190.973 12.8531L191.072 13.776L192.008 13.776L192.008 9.60266C192.008 7.91077 191.113 6.80334 189.254 6.80334C188.061 6.80334 186.912 7.33655 186.229 7.7843L186.676 8.56702C187.305 8.17737 188.174 7.75696 189.055 7.75696C190.371 7.75696 190.833 8.53967 190.863 9.46252C187.346 9.7428 185.935 10.4845 185.935 12.0123C185.935 13.2291 186.97 13.9435 188.245 13.9435ZM188.553 13.0206C187.767 13.0206 187.052 12.6993 187.052 11.9269C187.052 11.0314 187.951 10.4572 190.863 10.2213L190.863 12.0123C190.091 12.6549 189.322 13.0206 188.553 13.0206ZM198.717 13.9435C199.571 13.9435 200.227 13.7623 200.843 13.5367L200.593 12.6993C200.101 12.8805 199.598 13.007 198.952 13.007C197.636 13.007 197.233 12.361 197.233 11.1442L197.233 7.91077L200.579 7.91077L200.579 6.97082L197.233 6.97082L197.233 4.78674L196.28 4.78674L196.126 6.97082L194.167 7.0426L194.167 7.91077L196.085 7.91077L196.085 11.1305C196.085 12.8087 196.727 13.9435 198.717 13.9435ZM202.413 13.776L203.558 13.776L203.558 8.84729C203.897 8.14661 204.204 7.79797 204.68 7.79797C205.185 7.79797 205.38 8.20471 205.38 8.98743L205.38 13.776L206.443 13.776L206.443 8.84729C206.809 8.14661 207.058 7.79797 207.537 7.79797C208.039 7.79797 208.265 8.20471 208.265 8.98743L208.265 13.776L209.413 13.776L209.413 8.90539C209.413 7.54504 208.853 6.80334 207.899 6.80334C207.117 6.80334 206.696 7.2511 206.303 7.97913C206.108 7.19641 205.688 6.80334 205.015 6.80334C204.232 6.80334 203.811 7.23743 203.463 7.86633L203.435 7.86633L203.336 6.97082L202.413 6.97082L202.413 13.776ZM214.201 13.9435C215.992 13.9435 217.561 12.6412 217.561 10.3888C217.561 8.10559 215.992 6.80334 214.201 6.80334C212.41 6.80334 210.841 8.10559 210.841 10.3888C210.841 12.6412 212.41 13.9435 214.201 13.9435ZM214.201 12.9933C212.898 12.9933 212.03 11.9406 212.03 10.3888C212.03 8.81995 212.898 7.75696 214.201 7.75696C215.503 7.75696 216.371 8.81995 216.371 10.3888C216.371 11.9406 215.503 12.9933 214.201 12.9933ZM222.741 13.9435C224.686 13.9435 225.762 13.0206 225.762 11.9132C225.762 10.8776 225.219 10.3033 222.949 9.81457C221.565 9.52063 220.977 9.2677 220.977 8.67981C220.977 8.1637 221.38 7.69885 222.543 7.69885C223.411 7.69885 224.197 7.97913 224.826 8.41321L225.386 7.67151C224.713 7.21008 223.677 6.80334 222.642 6.80334C220.779 6.80334 219.815 7.64416 219.815 8.7345C219.815 9.75647 220.71 10.3614 222.474 10.7238C224.323 11.1031 224.604 11.4655 224.604 11.985C224.604 12.5592 224.029 13.048 222.881 13.048C221.62 13.048 220.71 12.6857 219.924 12.1251L219.395 12.8805C220.218 13.4547 221.411 13.9435 222.741 13.9435ZM231.001 13.9435C231.63 13.9435 232.135 13.4684 232.135 12.7677C232.135 12.0533 231.63 11.5782 231.001 11.5782C230.368 11.5782 229.866 12.0533 229.866 12.7677C229.866 13.4684 230.368 13.9435 231.001 13.9435ZM239.623 13.776L240.771 13.776L240.771 6.97082L236.461 6.97082L236.461 7.91077L239.623 7.91077L239.623 13.776ZM240.071 5.54553C240.59 5.54553 240.997 5.19348 240.997 4.64661C240.997 4.11682 240.59 3.7511 240.071 3.7511C239.554 3.7511 239.148 4.11682 239.148 4.64661C239.148 5.19348 239.554 5.54553 240.071 5.54553ZM247.801 13.9435C249.592 13.9435 251.16 12.6412 251.16 10.3888C251.16 8.10559 249.592 6.80334 247.801 6.80334C246.01 6.80334 244.441 8.10559 244.441 10.3888C244.441 12.6412 246.01 13.9435 247.801 13.9435ZM247.801 12.9933C246.498 12.9933 245.63 11.9406 245.63 10.3888C245.63 8.81995 246.498 7.75696 247.801 7.75696C249.103 7.75696 249.971 8.81995 249.971 10.3888C249.971 11.9406 249.103 12.9933 247.801 12.9933ZM264.081 17.276L265.117 17.276L265.117 3.276L264.081 3.276L264.081 17.276ZM281.541 13.9435C283.486 13.9435 284.562 13.0206 284.562 11.9132C284.562 10.8776 284.019 10.3033 281.749 9.81457C280.365 9.52063 279.777 9.2677 279.777 8.67981C279.777 8.1637 280.18 7.69885 281.342 7.69885C282.211 7.69885 282.997 7.97913 283.626 8.41321L284.186 7.67151C283.513 7.21008 282.477 6.80334 281.442 6.80334C279.579 6.80334 278.615 7.64416 278.615 8.7345C278.615 9.75647 279.51 10.3614 281.274 10.7238C283.123 11.1031 283.404 11.4655 283.404 11.985C283.404 12.5592 282.829 13.048 281.681 13.048C280.42 13.048 279.51 12.6857 278.724 12.1251L278.195 12.8805C279.018 13.4547 280.211 13.9435 281.541 13.9435ZM286.902 13.776L288.051 13.776L288.051 9.02844C288.847 8.20471 289.394 7.79797 290.207 7.79797C291.325 7.79797 291.773 8.41321 291.773 9.70178L291.773 13.776L292.921 13.776L292.921 9.54797C292.921 7.75696 292.18 6.80334 290.57 6.80334C289.507 6.80334 288.721 7.37756 288.023 8.13293L287.979 8.13293L288.051 6.52307L288.051 3.8092L286.902 3.8092L286.902 13.776Z" transform="translate(0 44)" fill="#FFFFFF" />
      <path d="M3.64844 11.5682L3.9375 9.20103L6.04688 9.20103L5.76172 11.5682L3.64844 11.5682ZM2.27344 15.744L3.13672 15.744L3.53516 12.4784L5.64844 12.4784L5.24609 15.744L6.11328 15.744L6.51172 12.4784L7.98438 12.4784L7.98438 11.5682L6.625 11.5682L6.91016 9.20103L8.30469 9.20103L8.30469 8.27134L7.02344 8.27134L7.375 5.34556L6.52734 5.34556L6.16016 8.27134L4.04688 8.27134L4.39844 5.34556L3.55078 5.34556L3.18359 8.27134L1.71094 8.27134L1.71094 9.20103L3.07031 9.20103L2.78516 11.5682L1.39062 11.5682L1.39062 12.4784L2.67188 12.4784L2.27344 15.744ZM24.0789 15.9354C26.3836 15.9354 27.7938 14.6073 27.7938 12.9432C27.7938 11.3924 26.7664 10.6737 25.4734 10.1424L24.0008 9.50572C23.1023 9.13463 22.1297 8.76744 22.1297 7.75963C22.1297 6.81431 22.9422 6.22447 24.1609 6.22447C25.2469 6.22447 26.0477 6.60728 26.7352 7.21666L27.4383 6.35338C26.6727 5.58384 25.5203 5.0565 24.2078 5.0565C22.2078 5.0565 20.7664 6.24009 20.7664 7.84166C20.7664 9.37681 21.9852 10.1268 23.0398 10.5448L24.5438 11.201C25.6141 11.6659 26.4305 11.9823 26.4305 13.1034C26.4305 14.0799 25.5828 14.7674 24.1453 14.7674C22.9422 14.7674 21.8563 14.2401 21.0711 13.4549L20.2703 14.3846C21.2156 15.3299 22.5438 15.9354 24.0789 15.9354ZM35.1047 15.9354C36.0813 15.9354 36.8313 15.7284 37.5344 15.4706L37.2492 14.5135C36.6867 14.7206 36.1125 14.8651 35.3742 14.8651C33.8703 14.8651 33.4094 14.1268 33.4094 12.7362L33.4094 9.04088L37.2336 9.04088L37.2336 7.96666L33.4094 7.96666L33.4094 5.47056L32.3195 5.47056L32.1438 7.96666L29.9055 8.04869L29.9055 9.04088L32.0969 9.04088L32.0969 12.7206C32.0969 14.6385 32.8313 15.9354 35.1047 15.9354ZM42.3375 15.9354C43.4391 15.9354 44.5445 15.3612 45.4078 14.6893L45.4547 14.6893L45.568 15.744L46.6383 15.744L46.6383 10.9745C46.6383 9.04088 45.6148 7.77525 43.4898 7.77525C42.1266 7.77525 40.8141 8.38463 40.0328 8.89634L40.5445 9.79088C41.2633 9.34556 42.2555 8.86509 43.2633 8.86509C44.7672 8.86509 45.2945 9.75963 45.3297 10.8143C41.3102 11.1346 39.6969 11.9823 39.6969 13.7284C39.6969 15.119 40.8805 15.9354 42.3375 15.9354ZM42.6891 14.8807C41.7906 14.8807 40.9742 14.5135 40.9742 13.6307C40.9742 12.6073 42.0016 11.951 45.3297 11.6815L45.3297 13.7284C44.4469 14.4628 43.568 14.8807 42.6891 14.8807ZM54.3047 15.9354C55.2812 15.9354 56.0312 15.7284 56.7344 15.4706L56.4492 14.5135C55.8867 14.7206 55.3125 14.8651 54.5742 14.8651C53.0703 14.8651 52.6094 14.1268 52.6094 12.7362L52.6094 9.04088L56.4336 9.04088L56.4336 7.96666L52.6094 7.96666L52.6094 5.47056L51.5195 5.47056L51.3438 7.96666L49.1055 8.04869L49.1055 9.04088L51.2969 9.04088L51.2969 12.7206C51.2969 14.6385 52.0312 15.9354 54.3047 15.9354ZM61.5375 15.9354C62.7367 15.9354 63.6469 15.2948 64.432 14.3846L64.4945 14.3846L64.6078 15.744L65.6781 15.744L65.6781 7.96666L64.3695 7.96666L64.3695 13.3612C63.5023 14.369 62.8461 14.7987 61.9516 14.7987C60.6547 14.7987 60.1586 14.0956 60.1586 12.6229L60.1586 7.96666L58.8305 7.96666L58.8305 12.7987C58.8305 14.8495 59.6781 15.9354 61.5375 15.9354ZM72.1609 15.9354C74.3836 15.9354 75.6141 14.8807 75.6141 13.6151C75.6141 12.4315 74.993 11.7753 72.3992 11.2167C70.8172 10.8807 70.1453 10.5917 70.1453 9.91978C70.1453 9.32994 70.6062 8.79869 71.9344 8.79869C72.9266 8.79869 73.825 9.119 74.5437 9.61509L75.1844 8.76744C74.4148 8.24009 73.2312 7.77525 72.0477 7.77525C69.9187 7.77525 68.8172 8.73619 68.8172 9.98228C68.8172 11.1503 69.8406 11.8417 71.8562 12.2557C73.9695 12.6893 74.2898 13.1034 74.2898 13.6971C74.2898 14.3534 73.6336 14.912 72.3211 14.912C70.8797 14.912 69.8406 14.4979 68.9422 13.8573L68.3367 14.7206C69.2781 15.3768 70.6414 15.9354 72.1609 15.9354ZM90.7359 15.9354C91.6969 15.9354 92.6227 15.3768 93.2633 14.7206L93.3102 14.7206L93.4234 15.744L94.5133 15.744L94.5133 4.35338L93.2008 4.35338L93.2008 7.34556L93.2633 8.78306L93.2164 8.78306C92.5445 8.14244 91.8258 7.77525 90.8961 7.77525C89.0562 7.77525 87.3609 9.34556 87.3609 11.8729C87.3609 14.4628 88.7047 15.9354 90.7359 15.9354ZM91.0094 14.8338C89.568 14.8338 88.7203 13.7128 88.7203 11.8573C88.7203 10.0799 89.8062 8.88072 91.1539 8.88072C91.8258 8.88072 92.4977 9.13463 93.2008 9.79088L93.2008 13.6659C92.5133 14.4315 91.775 14.8338 91.0094 14.8338ZM100.801 15.9354C102.848 15.9354 104.641 14.4471 104.641 11.8729C104.641 9.26353 102.848 7.77525 100.801 7.77525C98.7539 7.77525 96.9609 9.26353 96.9609 11.8729C96.9609 14.4471 98.7539 15.9354 100.801 15.9354ZM100.801 14.8495C99.3125 14.8495 98.3203 13.6463 98.3203 11.8729C98.3203 10.0799 99.3125 8.86509 100.801 8.86509C102.289 8.86509 103.281 10.0799 103.281 11.8729C103.281 13.6463 102.289 14.8495 100.801 14.8495ZM116.13 15.744L117.438 15.744L117.438 10.1112C117.825 9.31041 118.177 8.91197 118.72 8.91197C119.298 8.91197 119.52 9.37681 119.52 10.2713L119.52 15.744L120.735 15.744L120.735 10.1112C121.153 9.31041 121.438 8.91197 121.985 8.91197C122.559 8.91197 122.817 9.37681 122.817 10.2713L122.817 15.744L124.13 15.744L124.13 10.1776C124.13 8.62291 123.489 7.77525 122.399 7.77525C121.505 7.77525 121.024 8.28697 120.575 9.119C120.352 8.22447 119.872 7.77525 119.102 7.77525C118.208 7.77525 117.727 8.27134 117.329 8.99009L117.298 8.99009L117.184 7.96666L116.13 7.96666L116.13 15.744ZM129.601 15.9354C131.648 15.9354 133.441 14.4471 133.441 11.8729C133.441 9.26353 131.648 7.77525 129.601 7.77525C127.554 7.77525 125.761 9.26353 125.761 11.8729C125.761 14.4471 127.554 15.9354 129.601 15.9354ZM129.601 14.8495C128.112 14.8495 127.12 13.6463 127.12 11.8729C127.12 10.0799 128.112 8.86509 129.601 8.86509C131.089 8.86509 132.081 10.0799 132.081 11.8729C132.081 13.6463 131.089 14.8495 129.601 14.8495ZM135.888 15.744L137.201 15.744L137.201 10.3182C138.111 9.37681 138.736 8.91197 139.666 8.91197C140.943 8.91197 141.455 9.61509 141.455 11.0878L141.455 15.744L142.767 15.744L142.767 10.912C142.767 8.86509 141.92 7.77525 140.08 7.77525C138.865 7.77525 137.966 8.4315 137.154 9.29478L137.087 9.29478L136.974 7.96666L135.888 7.96666L135.888 15.744ZM149.055 15.744L150.367 15.744L150.367 7.96666L145.441 7.96666L145.441 9.04088L149.055 9.04088L149.055 15.744ZM149.566 6.33775C150.16 6.33775 150.625 5.93541 150.625 5.31041C150.625 4.70494 150.16 4.28697 149.566 4.28697C148.977 4.28697 148.512 4.70494 148.512 5.31041C148.512 5.93541 148.977 6.33775 149.566 6.33775ZM159.905 15.9354C160.881 15.9354 161.631 15.7284 162.334 15.4706L162.049 14.5135C161.487 14.7206 160.913 14.8651 160.174 14.8651C158.67 14.8651 158.209 14.1268 158.209 12.7362L158.209 9.04088L162.034 9.04088L162.034 7.96666L158.209 7.96666L158.209 5.47056L157.12 5.47056L156.944 7.96666L154.705 8.04869L154.705 9.04088L156.897 9.04088L156.897 12.7206C156.897 14.6385 157.631 15.9354 159.905 15.9354ZM168.001 15.9354C170.048 15.9354 171.841 14.4471 171.841 11.8729C171.841 9.26353 170.048 7.77525 168.001 7.77525C165.954 7.77525 164.161 9.26353 164.161 11.8729C164.161 14.4471 165.954 15.9354 168.001 15.9354ZM168.001 14.8495C166.513 14.8495 165.52 13.6463 165.52 11.8729C165.52 10.0799 166.513 8.86509 168.001 8.86509C169.489 8.86509 170.481 10.0799 170.481 11.8729C170.481 13.6463 169.489 14.8495 168.001 14.8495ZM175.136 15.744L176.448 15.744L176.448 11.1854C177.374 9.56822 178.48 8.95884 179.648 8.95884C180.257 8.95884 180.542 9.04088 181.089 9.23228L181.394 8.09556C180.913 7.85728 180.433 7.77525 179.855 7.77525C178.417 7.77525 177.198 8.56041 176.386 9.8065L176.335 9.8065L176.226 7.96666L175.136 7.96666L175.136 15.744ZM186.338 15.9354C187.439 15.9354 188.545 15.3612 189.408 14.6893L189.455 14.6893L189.568 15.744L190.638 15.744L190.638 10.9745C190.638 9.04088 189.615 7.77525 187.49 7.77525C186.127 7.77525 184.814 8.38463 184.033 8.89634L184.545 9.79088C185.263 9.34556 186.255 8.86509 187.263 8.86509C188.767 8.86509 189.295 9.75963 189.33 10.8143C185.31 11.1346 183.697 11.9823 183.697 13.7284C183.697 15.119 184.88 15.9354 186.338 15.9354ZM186.689 14.8807C185.791 14.8807 184.974 14.5135 184.974 13.6307C184.974 12.6073 186.002 11.951 189.33 11.6815L189.33 13.7284C188.447 14.4628 187.568 14.8807 186.689 14.8807ZM192.93 15.744L194.238 15.744L194.238 10.1112C194.625 9.31041 194.977 8.91197 195.52 8.91197C196.098 8.91197 196.32 9.37681 196.32 10.2713L196.32 15.744L197.535 15.744L197.535 10.1112C197.953 9.31041 198.238 8.91197 198.785 8.91197C199.359 8.91197 199.617 9.37681 199.617 10.2713L199.617 15.744L200.93 15.744L200.93 10.1776C200.93 8.62291 200.289 7.77525 199.199 7.77525C198.305 7.77525 197.824 8.28697 197.375 9.119C197.152 8.22447 196.672 7.77525 195.902 7.77525C195.008 7.77525 194.527 8.27134 194.129 8.99009L194.098 8.99009L193.984 7.96666L192.93 7.96666L192.93 15.744ZM206.69 8.81431C208.014 8.81431 208.897 9.59947 209.006 11.201L204.049 11.201C204.288 9.66588 205.409 8.81431 206.69 8.81431ZM206.881 15.9354C208.127 15.9354 209.12 15.5213 209.889 15.0096L209.409 14.1424C208.706 14.5917 207.967 14.8807 207.041 14.8807C205.424 14.8807 204.174 13.9823 204.014 12.2245L210.143 12.2245C210.174 12.0174 210.209 11.7284 210.209 11.4237C210.209 9.23228 208.897 7.77525 206.655 7.77525C204.577 7.77525 202.69 9.31041 202.69 11.8417C202.69 14.4315 204.545 15.9354 206.881 15.9354ZM212.688 15.744L214.001 15.744L214.001 10.3182C214.911 9.37681 215.536 8.91197 216.466 8.91197C217.743 8.91197 218.255 9.61509 218.255 11.0878L218.255 15.744L219.567 15.744L219.567 10.912C219.567 8.86509 218.72 7.77525 216.88 7.77525C215.665 7.77525 214.766 8.4315 213.954 9.29478L213.888 9.29478L213.774 7.96666L212.688 7.96666L212.688 15.744ZM227.105 15.9354C228.081 15.9354 228.831 15.7284 229.534 15.4706L229.249 14.5135C228.687 14.7206 228.113 14.8651 227.374 14.8651C225.87 14.8651 225.409 14.1268 225.409 12.7362L225.409 9.04088L229.234 9.04088L229.234 7.96666L225.409 7.96666L225.409 5.47056L224.32 5.47056L224.144 7.96666L221.906 8.04869L221.906 9.04088L224.097 9.04088L224.097 12.7206C224.097 14.6385 224.831 15.9354 227.105 15.9354ZM235.201 15.9354C237.248 15.9354 239.041 14.4471 239.041 11.8729C239.041 9.26353 237.248 7.77525 235.201 7.77525C233.154 7.77525 231.361 9.26353 231.361 11.8729C231.361 14.4471 233.154 15.9354 235.201 15.9354ZM235.201 14.8495C233.713 14.8495 232.72 13.6463 232.72 11.8729C232.72 10.0799 233.713 8.86509 235.201 8.86509C236.689 8.86509 237.681 10.0799 237.681 11.8729C237.681 13.6463 236.689 14.8495 235.201 14.8495Z" transform="translate(0 100)" fill="#004AAD" />
    </g>
  </g>
</svg>