<?xml version="1.0" encoding="utf-8"?>
<svg width="37" height="37" viewBox="0 0 37 37" fill="none" xmlns="http://www.w3.org/2000/svg">
  <g>
    <path d="M4.10801 2.39763L4.13171 0.0634489L6.33437 0.0634489L6.33437 2.39763L8.3357 2.3336L8.3357 0.0634489L10.4516 0L10.4516 2.33346L12.5453 2.33346L12.5453 0.0634489L14.7601 0.0634489L14.7601 2.33346L16.9733 2.38664L16.9733 0.0634489L19.0897 0.0634489L19.1099 2.38664C19.1099 2.38664 19.7829 2.39792 19.7829 2.39792C20.0892 2.40305 20.3809 2.5297 20.5939 2.75C20.8068 2.9703 20.9234 3.26619 20.9182 3.57252C20.9182 3.57252 20.9082 4.14935 20.9082 4.14935L23.237 4.14935L23.237 6.42774L20.9242 6.42774L20.9378 8.424L23.2369 8.424L23.1558 10.6491L20.8803 10.6491L20.9095 12.7481L23.1558 12.8406L23.1558 15.0414L20.8975 15.0414L20.9241 16.9636L23.1558 16.9882L23.1558 19.1475L20.8924 19.1475C20.8924 19.1475 20.8742 19.717 20.8742 19.717C20.8537 20.3552 20.3196 20.881 19.681 20.8916C19.681 20.8916 19.0966 20.9011 19.0966 20.9011L19.0897 23.2938L16.9733 23.2938L16.9733 20.9673L14.76 20.9673L14.76 23.2938L12.5452 23.2938L12.5452 20.9673L10.4516 20.9673L10.4516 23.2938L8.45118 23.2938L8.45118 20.9673L6.33423 20.9673L6.33423 23.2938L4.13171 23.2938L4.10801 20.8725C4.10801 20.8725 3.5202 20.8725 3.5202 20.8725C2.88206 20.8725 2.36469 20.3552 2.36453 19.7171C2.36453 19.7171 2.36453 19.1475 2.36453 19.1475L0 19.1475L0 16.9882L2.36453 16.9882L2.39864 15.0414L4.76837e-07 15.0414L4.76837e-07 12.8406L2.36453 12.8406L2.36453 10.6489L9.53674e-07 10.6489L9.53674e-07 8.57562L2.43492 8.57562L2.43492 6.44306L4.76837e-07 6.44306L4.76837e-07 4.28564L2.39864 4.28564C2.39864 4.28564 2.39864 3.57455 2.39864 3.57455C2.39864 2.9363 2.91606 2.41252 3.55532 2.40457C3.55532 2.40457 4.10801 2.39763 4.10801 2.39763L4.10801 2.39763ZM4.6465 5.00768C4.6465 5.00768 4.73018 18.2988 4.73018 18.2988C4.7312 18.4599 4.86156 18.5878 5.02127 18.5871C5.02127 18.5871 18.2944 18.5329 18.2944 18.5329C18.4545 18.5325 18.5841 18.4027 18.5842 18.2427C18.5842 18.2427 18.6059 4.97892 18.6059 4.97892C18.6064 4.90234 18.5762 4.82876 18.5221 4.77457C18.468 4.72038 18.3944 4.69008 18.3178 4.69043C18.3178 4.69043 4.93296 4.71746 4.93296 4.71746C4.85642 4.71776 4.78317 4.74856 4.72941 4.80303C4.67564 4.8575 4.6458 4.93115 4.6465 5.00768C4.6465 5.00768 4.6465 5.00768 4.6465 5.00768Z" fill="#3879FC" fill-rule="evenodd" transform="matrix(1 0 0 1 6.904 6.853)" />
  </g>
</svg>