<?xml version="1.0" encoding="utf-8"?>
<svg width="25" height="25" viewBox="0 0 25 25" fill="none" xmlns="http://www.w3.org/2000/svg">
  <g>
    <path d="M15.8332 0.833333C15.8332 0.833333 16.2956 0.139958 16.2956 0.139958L16.0856 0L15.8332 0C15.8332 0 15.8332 0.833333 15.8332 0.833333ZM20.8333 4.16667C20.8333 4.16667 21.6667 4.16667 21.6667 4.16667L21.6667 3.72069L21.2957 3.47329C21.2957 3.47329 20.8333 4.16667 20.8333 4.16667ZM19.1666 20C19.1666 20 5.83329 20 5.83329 20L5.83329 21.6667L19.1666 21.6667C19.1666 21.6667 19.1666 20 19.1666 20ZM4.9999 19.1667C4.9999 19.1667 4.9999 2.5 4.9999 2.5L3.33324 2.5L3.33324 19.1667C3.33324 19.1667 4.9999 19.1667 4.9999 19.1667ZM5.83328 1.66667C5.83328 1.66667 15.8333 1.66667 15.8333 1.66667L15.8333 0L5.83328 0C5.83328 0 5.83328 1.66667 5.83328 1.66667ZM19.9999 4.16667C19.9999 4.16667 19.9999 19.1667 19.9999 19.1667L21.6666 19.1667L21.6666 4.16667C21.6666 4.16667 19.9999 4.16667 19.9999 4.16667ZM15.371 1.52671C15.371 1.52671 20.371 4.86005 20.371 4.86005L21.2957 3.47329L16.2957 0.139962C16.2957 0.139962 15.371 1.52671 15.371 1.52671ZM5.83324 20C5.373 20 4.9999 19.6268 4.9999 19.1667C4.9999 19.1667 3.33324 19.1667 3.33324 19.1667C3.33324 20.5473 4.45252 21.6667 5.83324 21.6667C5.83324 21.6667 5.83324 20 5.83324 20ZM19.1667 21.6667C20.5474 21.6667 21.6667 20.5473 21.6667 19.1667C21.6667 19.1667 20.0001 19.1667 20.0001 19.1667C20.0001 19.6268 19.6269 20 19.1667 20C19.1667 20 19.1667 21.6667 19.1667 21.6667ZM4.9999 2.5C4.9999 2.03977 5.373 1.66667 5.83324 1.66667C5.83324 1.66667 5.83324 0 5.83324 0C4.45252 0 3.33324 1.11929 3.33324 2.5C3.33324 2.5 4.9999 2.5 4.9999 2.5ZM0 5.83333C0 5.83333 0 22.5 0 22.5L1.66667 22.5L1.66667 5.83333C1.66667 5.83333 0 5.83333 0 5.83333ZM2.50005 25C2.50005 25 15.8334 25 15.8334 25L15.8334 23.3333L2.50005 23.3333C2.50005 23.3333 2.50005 25 2.50005 25ZM2.50005 4.99999C2.50005 4.99999 4.16671 4.99999 4.16671 4.99999L4.16671 3.33333L2.50005 3.33333C2.50005 3.33333 2.50005 4.99999 2.50005 4.99999ZM18.3333 22.5C18.3333 22.5 18.3333 20.8333 18.3333 20.8333L16.6667 20.8333L16.6667 22.5C16.6667 22.5 18.3333 22.5 18.3333 22.5ZM15.8332 25C17.2139 25 18.3332 23.8807 18.3332 22.5C18.3332 22.5 16.6666 22.5 16.6666 22.5C16.6666 22.9602 16.2934 23.3333 15.8332 23.3333C15.8332 23.3333 15.8332 25 15.8332 25ZM1.19209e-07 22.5C1.19209e-07 23.8807 1.11928 25 2.5 25C2.5 25 2.5 23.3333 2.5 23.3333C2.03977 23.3333 1.66667 22.9602 1.66667 22.5C1.66667 22.5 1.19209e-07 22.5 1.19209e-07 22.5ZM1.66667 5.83333C1.66667 5.37309 2.03977 4.99999 2.5 4.99999C2.5 4.99999 2.5 3.33333 2.5 3.33333C1.11928 3.33333 1.19209e-07 4.45261 1.19209e-07 5.83333C1.19209e-07 5.83333 1.66667 5.83333 1.66667 5.83333Z" fill="#3879FC" transform="translate(1.667 0)" />
  </g>
</svg>