<?xml version="1.0" encoding="utf-8"?>
<svg width="80" height="80" viewBox="0 0 80 80" fill="none" xmlns="http://www.w3.org/2000/svg">
  <defs>
    <clipPath id="clip_path_1">
      <rect width="80" height="80" />
    </clipPath>
  </defs>
  <g clip-path="url(#clip_path_1)" transform="matrix(1 -0 0 1 0 0)">
    <path d="M19.9878 35.0002L19.9878 20M20 19.9868L35 19.9868M20.0005 20L40.0005 39.9995M60 30.0001C60 46.5687 46.5687 60 30 60C13.4315 60 6.10352e-05 46.5686 3.8147e-05 30C1.52588e-05 13.4315 13.4314 1.71661e-05 30 4.00543e-05C46.5686 6.48499e-05 59.9999 13.4315 60 30.0001Z" fill="none" stroke-width="2" stroke="#004AAD" stroke-linecap="round" stroke-linejoin="round" transform="matrix(-0.707 -0.707 0.707 -0.707 40.002 82.426)" />
  </g>
</svg>