<?xml version="1.0" encoding="utf-8"?>
<svg width="25" height="25" viewBox="0 0 25 25" fill="none" xmlns="http://www.w3.org/2000/svg">
  <g>
    <path d="M15.8609 18.75L6.01094 18.75L2.89062 21.8734L1.5625 20.5469L3.35937 18.75L0 18.75L0 0L21.875 0L21.875 18.75L18.5141 18.75L20.3109 20.5469L18.9844 21.8734L15.8609 18.75L15.8609 18.75ZM1.875 1.875L1.875 16.875L20 16.875L20 1.875L1.875 1.875L1.875 1.875ZM5.3125 4.6875L7.1875 4.6875L7.1875 14.0625L5.3125 14.0625L5.3125 4.6875L5.3125 4.6875ZM14.6875 9.375L16.5625 9.375L16.5625 14.0625L14.6875 14.0625L14.6875 9.375L14.6875 9.375ZM10 7.03125L11.875 7.03125L11.875 14.0625L10 14.0625L10 7.03125L10 7.03125Z" fill="#3879FC" transform="translate(1.563 1.563)" />
  </g>
</svg>