<?xml version="1.0" encoding="utf-8"?>
<svg width="25" height="25" viewBox="0 0 25 25" fill="none" xmlns="http://www.w3.org/2000/svg">
  <g>
    <path d="M25 0C25 0 0 0 0 0L0 7.8125L25 7.8125C25 7.8125 25 0 25 0ZM6.25 3.90625C6.25 4.76919 5.55044 5.46875 4.6875 5.46875C3.82456 5.46875 3.125 4.76919 3.125 3.90625C3.125 3.04331 3.82456 2.34375 4.6875 2.34375C5.55044 2.34375 6.25 3.04331 6.25 3.90625Z" fill="#3879FC" fill-rule="evenodd" transform="translate(0 3.125)" />
    <path d="M25 0C25 0 0 0 0 0L0 7.8125L25 7.8125C25 7.8125 25 0 25 0ZM4.6875 5.46875C5.55044 5.46875 6.25 4.76922 6.25 3.90625C6.25 3.04328 5.55044 2.34375 4.6875 2.34375C3.82456 2.34375 3.125 3.04328 3.125 3.90625C3.125 4.76922 3.82456 5.46875 4.6875 5.46875Z" fill="#3879FC" fill-rule="evenodd" transform="translate(0 14.063)" />
  </g>
</svg>