<?xml version="1.0" encoding="utf-8"?>
<svg width="25" height="25" viewBox="0 0 25 25" fill="none" xmlns="http://www.w3.org/2000/svg">
  <g>
    <g>
      <g>
        <path d="M5.72917 0C2.56503 0 0 2.56503 0 5.72917C0 8.8933 2.56503 11.4583 5.72917 11.4583C8.89333 11.4583 11.4583 8.8933 11.4583 5.72917C11.4583 2.56503 8.89333 0 5.72917 0ZM2.08333 5.72917C2.08333 3.71563 3.71562 2.08333 5.72916 2.08333C7.7427 2.08333 9.375 3.71563 9.375 5.72917C9.375 7.74271 7.7427 9.375 5.72916 9.375C3.71562 9.375 2.08333 7.74271 2.08333 5.72917Z" fill="#3879FC" fill-rule="evenodd" transform="translate(3.646 0)" />
        <path d="M1.04167 0C0.466353 0 0 0.46637 0 1.04167C0 1.61696 0.466353 2.08333 1.04167 2.08333C3.05521 2.08333 4.6875 3.71562 4.6875 5.72917C4.6875 7.74271 3.05521 9.375 1.04167 9.375C0.466353 9.375 0 9.84136 0 10.4167C0 10.992 0.466353 11.4583 1.04167 11.4583C4.20583 11.4583 6.77083 8.8933 6.77083 5.72917C6.77083 2.56503 4.20583 0 1.04167 0Z" fill="#3879FC" transform="translate(15.104 0)" />
        <path d="M0.0874481 0.624887C0.31776 0.0976992 0.931824 -0.142926 1.45901 0.0873861C3.66422 1.05082 5.20859 3.25228 5.20859 5.81687C5.20859 5.81687 5.20859 7.9002 5.20859 7.9002C5.20859 8.47551 4.74224 8.94187 4.16693 8.94187C3.59161 8.94187 3.12526 8.47551 3.12526 7.9002C3.12526 7.9002 3.12526 5.81687 3.12526 5.81687C3.12526 4.10989 2.0987 2.6403 0.624844 1.99645C0.0976563 1.76614 -0.142969 1.15197 0.0874481 0.624887Z" fill="#3879FC" transform="translate(19.791 13.975)" />
        <path d="M6.25 0C2.79822 0 0 2.79823 0 6.25C0 6.25 0 8.33333 0 8.33333C0 8.90865 0.46637 9.375 1.04167 9.375C1.61696 9.375 2.08333 8.90865 2.08333 8.33333C2.08333 8.33333 2.08333 6.25 2.08333 6.25C2.08333 3.94885 3.94881 2.08333 6.25 2.08333C6.25 2.08333 12.5 2.08333 12.5 2.08333C14.8011 2.08333 16.6667 3.94885 16.6667 6.25C16.6667 6.25 16.6667 8.33333 16.6667 8.33333C16.6667 8.90865 17.133 9.375 17.7083 9.375C18.2836 9.375 18.75 8.90865 18.75 8.33333C18.75 8.33333 18.75 6.25 18.75 6.25C18.75 2.79823 15.9518 0 12.5 0C12.5 0 6.25 0 6.25 0Z" fill="#3879FC" transform="translate(0 13.542)" />
      </g>
    </g>
  </g>
</svg>